<svg xmlns="http://www.w3.org/2000/svg" version="1.1" xmlns:xlink="http://www.w3.org/1999/xlink" width="512" height="512" x="0" y="0" viewBox="0 0 512 512" style="enable-background:new 0 0 512 512" xml:space="preserve" class=""><g><path fill="#ffb357" d="M210.655 117.046C167.302 73.693 107.992 56.079 51.637 64.129c-14.21 2.03-25.414 13.234-27.444 27.444-8.051 56.355 9.564 115.665 52.917 159.018a188.41 188.41 0 0 0 22.741 19.374l130.178-130.178a188.41 188.41 0 0 0-19.374-22.741z" opacity="1" data-original="#ffb357" class=""></path><path fill="#ffce71" d="M434.89 250.591c43.353-43.353 60.967-102.663 52.917-159.018-2.03-14.21-13.234-25.414-27.444-27.444-56.355-8.05-115.665 9.564-159.018 52.917a188.343 188.343 0 0 0-19.496 22.908l130.133 130.133a188.343 188.343 0 0 0 22.908-19.496z" opacity="1" data-original="#ffce71" class=""></path><path fill="#fce3a0" d="M76.602 127.498c2.125 31.811 15.573 61.739 38.718 84.883l57.124-57.125c-22.953-22.953-52.845-36.495-84.907-38.673-6.179-.419-11.347 4.736-10.935 10.915z" opacity="1" data-original="#fce3a0" class=""></path><path fill="#fff1d4" d="M424.464 116.583c-32.018 2.175-61.921 15.685-84.909 38.673l57.125 57.125c23.144-23.144 36.592-53.071 38.717-84.883.413-6.178-4.755-11.334-10.933-10.915z" opacity="1" data-original="#fff1d4"></path><path fill="#ffce71" d="M489.433 284.913a289.907 289.907 0 0 0-18.098-22.488c5.89-7.882 5.823-18.721-.006-26.631-27.945-37.92-65.732-67.948-109.553-86.864v-22.075H255.738l-125.483 38.666v262.294l94.276 38.664A269.745 269.745 0 0 0 256 468.328c88.394 0 166.763-42.935 215.448-109.105 5.761-7.831 5.748-18.51-.016-26.338l-.097-.131a289.891 289.891 0 0 0 18.098-22.487 21.59 21.59 0 0 0 0-25.354z" opacity="1" data-original="#ffce71" class=""></path><path fill="#ffb357" d="M255.738 126.856H149.733v21.884c-43.671 18.955-81.312 49.34-109.18 87.217-5.762 7.83-5.749 18.51.016 26.339l.097.131a290.08 290.08 0 0 0-18.098 22.487 21.587 21.587 0 0 0 0 25.354 289.702 289.702 0 0 0 18.098 22.487c-5.89 7.882-5.823 18.721.006 26.632 42.824 58.11 108.559 98.254 183.859 107.093-34.747-41.824-55.65-95.583-55.65-154.232 0-74.504 33.86-141.116 86.857-185.392z" opacity="1" data-original="#ffb357" class=""></path><path fill="#ff8e9e" d="M269.351 229.395c-7.373-7.373-19.328-7.373-26.701 0s-7.373 14.177 0 21.55L256 264.296l13.351-13.351c7.373-7.373 7.373-14.177 0-21.55z" opacity="1" data-original="#ff8e9e"></path><path fill="#30cd9c" d="M345.233 13.694A296.125 296.125 0 0 0 256.143.001l-25.242 13.324v91.063h93.97l28.637-33.902a554.391 554.391 0 0 1 5.277-34.155c1.852-9.885-3.961-19.613-13.552-22.637z" opacity="1" data-original="#30cd9c"></path><path fill="#0caf7b" d="M247.234 20.469c-1.527-8.162 2.177-16.205 8.909-20.468L255.997 0a298.76 298.76 0 0 0-89.207 13.715c-9.603 3.015-15.428 12.749-13.576 22.644a553.57 553.57 0 0 1 5.266 34.13l72.421 33.899 24.505-19.682a574.91 574.91 0 0 0-2.835-29.498c-1.41-11.558-3.184-23.234-5.337-34.739z" opacity="1" data-original="#0caf7b" class=""></path><path fill="#efedff" d="m255.406 84.707-24.505 19.682v19.233h118.604c.45-17.232 1.789-35.157 4.003-53.136a341.31 341.31 0 0 1-98.102 14.221z" opacity="1" data-original="#efedff"></path><path fill="#d4d4ff" d="M158.481 70.489c2.215 18.001 3.568 35.998 4.015 53.133H256V94.469a536.312 536.312 0 0 0-.594-9.762 341.367 341.367 0 0 1-96.925-14.218z" opacity="1" data-original="#d4d4ff"></path><path fill="#30cd9c" d="M382.624 113.883c-5.394-11.668-19.222-16.755-30.89-11.357-30.42 14.064-63.077 21.096-95.733 21.096l-38.778 23.263L256 170.148c36.276.004 72.172-7.181 105.775-21.218a275.628 275.628 0 0 0 9.453-4.158c11.665-5.393 16.79-19.223 11.396-30.889z" opacity="1" data-original="#30cd9c"></path><path fill="#0caf7b" d="M256 123.622c-32.656 0-65.312-7.032-95.73-21.098-11.668-5.393-25.496-.309-30.89 11.357-5.394 11.667-.309 25.496 11.356 30.89a277.21 277.21 0 0 0 8.997 3.968A273.917 273.917 0 0 0 256 170.148c-12.848-12.848-12.848-33.678 0-46.526z" opacity="1" data-original="#0caf7b" class=""></path><path fill="#30cd9c" d="M256 460.491S202.033 512 173.586 512s-38.117-23.061-38.117-51.509 9.669-51.509 38.117-51.509S256 460.491 256 460.491z" opacity="1" data-original="#30cd9c"></path><path fill="#ff8f71" d="M256 460.491S309.967 512 338.414 512s38.117-23.061 38.117-51.509-9.669-51.509-38.117-51.509S256 460.491 256 460.491z" opacity="1" data-original="#ff8f71"></path><path fill="#ff6f4d" d="M321.671 452.765h-34.765v15.453h34.765a7.727 7.727 0 0 0 0-15.453z" opacity="1" data-original="#ff6f4d"></path><path fill="#0caf7b" d="M190.33 452.765a7.726 7.726 0 1 0 0 15.452h34.765v-15.453H190.33z" opacity="1" data-original="#0caf7b" class=""></path><path fill="#efedff" d="M285.138 433.051a41.05 41.05 0 0 0-26.238-11.969l-44.107 41.109L258.9 503.3c9.56-.67 18.93-4.66 26.238-11.969 8.046-8.047 12.069-18.593 12.069-29.14s-4.022-21.093-12.069-29.14z" opacity="1" data-original="#efedff"></path><path fill="#d4d4ff" d="M241.016 462.191c0-15.146 6.082-30.098 17.884-41.109a41.248 41.248 0 0 0-2.9-.099c-22.749 0-41.207 18.428-41.207 41.207 0 22.749 18.427 41.207 41.207 41.207.967 0 1.934-.031 2.9-.099-11.455-10.685-17.884-25.484-17.884-41.107z" opacity="1" data-original="#d4d4ff"></path><g fill="#313d40"><path d="M174.493 232.414a7.726 7.726 0 0 0-7.726 7.726v14.36a7.726 7.726 0 1 0 15.452 0v-14.36a7.726 7.726 0 0 0-7.726-7.726zM294.284 269.812a7.726 7.726 0 0 0-7.726 7.726c0 6.295-5.121 11.415-11.415 11.415s-11.415-5.121-11.415-11.415v-10.041l11.782-11.783a7.727 7.727 0 1 0-10.927-10.928L256 253.369l-8.582-8.582a7.727 7.727 0 1 0-10.927 10.928l11.782 11.783v10.041c0 6.295-5.121 11.415-11.415 11.415-6.295 0-11.415-5.121-11.415-11.415a7.726 7.726 0 1 0-15.452 0c0 14.815 12.053 26.868 26.868 26.868 7.487 0 14.265-3.08 19.142-8.038 4.877 4.958 11.655 8.038 19.142 8.038 14.815 0 26.868-12.053 26.868-26.868a7.728 7.728 0 0 0-7.727-7.727zM338.783 232.414a7.726 7.726 0 0 0-7.726 7.726v14.36a7.726 7.726 0 1 0 15.452 0v-14.36a7.725 7.725 0 0 0-7.726-7.726z" fill="#313d40" opacity="1" data-original="#313d40"></path></g><g fill="#fff"><path d="m115.76 325.024-33.563 17.092a7.726 7.726 0 0 0 7.012 13.77l33.563-17.092a7.726 7.726 0 0 0-7.012-13.77zM112.004 297.726a7.725 7.725 0 0 0-7.726-7.726h-36.32a7.726 7.726 0 1 0 0 15.452h36.319a7.725 7.725 0 0 0 7.727-7.726zM82.197 253.337l33.562 17.092a7.727 7.727 0 0 0 10.391-3.379 7.725 7.725 0 0 0-3.379-10.391l-33.562-17.092c-3.802-1.934-8.455-.425-10.391 3.379a7.726 7.726 0 0 0 3.379 10.391zM394.017 271.272c1.18 0 2.377-.272 3.5-.843l33.562-17.092a7.726 7.726 0 0 0-7.012-13.77l-33.562 17.092a7.726 7.726 0 0 0 3.512 14.613zM445.318 290h-36.319a7.726 7.726 0 1 0 0 15.452h36.319a7.726 7.726 0 1 0 0-15.452zM431.079 342.116l-33.563-17.092a7.726 7.726 0 0 0-7.012 13.77l33.563 17.092a7.727 7.727 0 0 0 10.391-3.379 7.725 7.725 0 0 0-3.379-10.391z" fill="#ffffff" opacity="1" data-original="#ffffff"></path></g></g></svg>