<svg xmlns="http://www.w3.org/2000/svg" version="1.1" xmlns:xlink="http://www.w3.org/1999/xlink" width="512" height="512" x="0" y="0" viewBox="0 0 512 512" style="enable-background:new 0 0 512 512" xml:space="preserve"><g><path d="M371.137 435.206c37.297-18.51 69.516-45.729 93.999-79.006 5.592-7.602 5.58-17.968-.016-25.566l-.094-.128a281.69 281.69 0 0 0 17.568-21.828 20.955 20.955 0 0 0 0-24.611 281.705 281.705 0 0 0-17.568-21.829c5.717-7.651 5.652-18.173-.006-25.852a256.075 256.075 0 0 0-11.717-14.722c24.617-37.604 33.849-82.321 27.713-125.274-1.97-13.794-12.846-24.669-26.64-26.64-35.411-5.059-72.019.337-104.854 16.177" style="stroke-width:15;stroke-linecap:round;stroke-linejoin:round;stroke-miterlimit:10;stroke-dasharray:60,30,1000,0,1000,0;" fill="none" stroke="#000000" stroke-width="15" stroke-linecap="round" stroke-linejoin="round" stroke-miterlimit="10" stroke-dasharray="60,30,1000,0,1000,0" data-original="#000000"></path><path d="M162.467 85.921C129.635 70.086 93.031 64.692 57.624 69.75c-13.794 1.971-24.669 12.846-26.64 26.64-6.135 42.949 3.093 87.662 27.705 125.263a261.42 261.42 0 0 0-11.824 14.891c-5.593 7.601-5.58 17.968.016 25.567l.094.127a281.47 281.47 0 0 0-17.568 21.829 20.955 20.955 0 0 0 0 24.611 281.265 281.265 0 0 0 17.568 21.828c-5.718 7.651-5.653 18.173.006 25.853 24.469 33.203 56.649 60.354 93.888 78.831" style="stroke-width:15;stroke-linecap:round;stroke-linejoin:round;stroke-miterlimit:10;" fill="none" stroke="#000000" stroke-width="15" stroke-linecap="round" stroke-linejoin="round" stroke-miterlimit="10" data-original="#000000"></path><path d="M347.68 107.579c1.363-21.054 4.039-43.146 8.095-64.812 1.796-9.596-3.846-19.038-13.156-21.974a287.453 287.453 0 0 0-86.48-13.292l-.141-.001a290.033 290.033 0 0 0-86.594 13.313c-9.322 2.927-14.976 12.376-13.178 21.98 3.985 21.292 6.707 43.547 8.09 64.78" style="stroke-width:15;stroke-linecap:round;stroke-linejoin:round;stroke-miterlimit:10;" fill="none" stroke="#000000" stroke-width="15" stroke-linecap="round" stroke-linejoin="round" stroke-miterlimit="10" data-original="#000000"></path><path d="M256 127.5c-31.257 0-62.51-6.651-91.685-19.926-14.118-6.449-26.496.241-31.226 10.471-5.189 11.224-.383 24.711 11.023 29.985 35.145 16.252 73.158 24.633 111.887 24.633 38.59.004 76.676-8.37 111.852-24.632 11.416-5.279 16.249-18.766 11.062-29.985-4.799-10.379-17.23-16.855-31.234-10.467C318.506 120.851 287.255 127.5 256 127.5zM216 456.15c0-10.283 3.879-19.65 10.246-26.732C209.72 416.945 189.777 404.5 176 404.5c-20.768 0-31.224 12.664-35.133 30.689-1.288 5.942-1.867 12.465-1.867 19.311 0 27.614 9.386 50 37 50 13.309 0 32.37-11.613 48.548-23.646A39.834 39.834 0 0 1 216 456.15zM336 404.5c-13.777 0-33.718 12.444-50.245 24.917 6.829 7.589 10.245 17.16 10.245 26.733a39.879 39.879 0 0 1-8.548 24.703C303.631 492.887 322.692 504.5 336 504.5c27.614 0 37-22.386 37-50 0-6.84-.578-13.356-1.864-19.294C367.231 417.172 356.775 404.5 336 404.5z" style="stroke-width:15;stroke-linecap:round;stroke-linejoin:round;stroke-miterlimit:10;" fill="none" stroke="#000000" stroke-width="15" stroke-linecap="round" stroke-linejoin="round" stroke-miterlimit="10" data-original="#000000"></path><circle cx="256" cy="456.15" r="40" style="stroke-width:15;stroke-linecap:round;stroke-linejoin:round;stroke-miterlimit:10;" fill="none" stroke="#000000" stroke-width="15" stroke-linecap="round" stroke-linejoin="round" stroke-miterlimit="10" data-original="#000000"></circle><path d="M296 454.5h23.747M192.254 454.5H216M176.881 240.605v13.94M90.692 346.276l32.579-16.59M108.723 296.504H73.467M90.692 246.732l32.579 16.591M389.968 263.323l32.579-16.591M439.771 296.504h-35.255M389.967 329.686l32.58 16.59" style="stroke-width:15;stroke-linecap:round;stroke-linejoin:round;stroke-miterlimit:10;" fill="none" stroke="#000000" stroke-width="15" stroke-linecap="round" stroke-linejoin="round" stroke-miterlimit="10" data-original="#000000"></path><path d="M256 276.907c0 10.262-8.319 18.581-18.581 18.581-10.262 0-18.581-8.319-18.581-18.581M293.162 276.907c0 10.262-8.319 18.581-18.581 18.581S256 287.169 256 276.907v-12.854" style="stroke-width:15;stroke-linecap:round;stroke-miterlimit:10;" fill="none" stroke="#000000" stroke-width="15" stroke-linecap="round" stroke-miterlimit="10" data-original="#000000"></path><path d="M242.366 250.419 256 264.053l13.634-13.634M336.358 240.605v13.94M152.846 151.882c-19.843 8.612-38.404 19.657-55.309 32.74-9.071-16.39-14.422-34.532-15.679-53.359-.401-5.998 4.617-11.003 10.614-10.595a128.544 128.544 0 0 1 38.609 8.7M380.913 129.37a128.573 128.573 0 0 1 38.616-8.702c5.997-.408 11.014 4.598 10.613 10.595-1.261 18.885-6.641 37.083-15.763 53.512a261.853 261.853 0 0 0-55.702-32.707" style="stroke-width:15;stroke-linecap:round;stroke-linejoin:round;stroke-miterlimit:10;" fill="none" stroke="#000000" stroke-width="15" stroke-linecap="round" stroke-linejoin="round" stroke-miterlimit="10" data-original="#000000"></path><path d="M161.338 75.924a331.387 331.387 0 0 0 94.086 13.801 331.32 331.32 0 0 0 95.229-13.804" style="stroke-width:15;stroke-linecap:round;stroke-linejoin:round;stroke-miterlimit:10;stroke-dasharray:0,34,1000,0,1000,0;" fill="none" stroke="#000000" stroke-width="15" stroke-linecap="round" stroke-linejoin="round" stroke-miterlimit="10" stroke-dasharray="0,34,1000,0,1000,0" data-original="#000000"></path></g></svg>