<svg xmlns="http://www.w3.org/2000/svg" version="1.1" xmlns:xlink="http://www.w3.org/1999/xlink" width="512" height="512" x="0" y="0" viewBox="0 0 512 512" style="enable-background:new 0 0 512 512" xml:space="preserve"><g><path d="M211.983 163.508c-42.083-42.083-99.655-59.181-154.359-51.367-13.794 1.97-24.669 12.846-26.64 26.64-7.815 54.704 9.284 112.277 51.366 154.359a182.775 182.775 0 0 0 22.075 18.806l126.364-126.364a182.92 182.92 0 0 0-18.806-22.074z" style="" fill="#ff6f4d" data-original="#ff6f4d"></path><path d="M429.649 293.141c42.083-42.083 59.181-99.655 51.366-154.359-1.97-13.794-12.846-24.669-26.64-26.64-54.704-7.815-112.276 9.284-154.359 51.367a182.803 182.803 0 0 0-18.925 22.237l126.32 126.32a182.825 182.825 0 0 0 22.238-18.925z" style="" fill="#ff8f71" data-original="#ff8f71"></path><path d="M81.588 162.771c-.587 34.889 12.764 68.19 37.854 93.279l55.45-55.452c-24.86-24.859-58.103-38.346-93.304-37.827zM430.412 162.771c-35.143-.518-68.404 12.927-93.304 37.828l55.451 55.451c25.089-25.088 38.44-58.39 37.853-93.279z" style="" fill="#ffdbe0" data-original="#ffdbe0"></path><path d="M482.594 326.457a281.705 281.705 0 0 0-17.568-21.829c5.717-7.651 5.652-18.172-.006-25.851-27.126-36.809-63.807-66.229-106.344-84.591V173.03h-102.93l-121.807 37.533v254.61l91.514 37.531A261.942 261.942 0 0 0 256 504.499c85.805 0 161.877-41.678 209.136-105.908 5.592-7.601 5.58-17.968-.016-25.567l-.094-.128a281.69 281.69 0 0 0 17.568-21.828 20.958 20.958 0 0 0 0-24.611z" style="" fill="#ff8f71" data-original="#ff8f71"></path><path d="M255.746 173.031h-102.9v21.243c-42.391 18.399-78.93 47.895-105.982 84.661-5.593 7.601-5.58 17.968.016 25.567l.094.127a281.091 281.091 0 0 0-17.568 21.829 20.956 20.956 0 0 0 0 24.612 281.47 281.47 0 0 0 17.568 21.829c-5.718 7.651-5.653 18.173.006 25.852 41.569 56.407 105.379 95.376 178.473 103.955-33.729-40.599-54.02-92.782-54.02-149.713 0-72.323 32.868-136.983 84.313-179.962z" style="" fill="#ff6f4d" data-original="#ff6f4d"></path><path d="M268.959 272.566c-7.157-7.157-18.762-7.157-25.919 0s-7.157 13.762 0 20.919L256 306.444l12.96-12.96c7.157-7.156 7.157-13.761-.001-20.918z" style="" fill="#ffdbe0" data-original="#ffdbe0"></path><path d="M366.417 24.481A367.247 367.247 0 0 0 255.938 7.502l-31.302 16.523v70.884H376.68a687.744 687.744 0 0 1 6.544-42.355c2.295-12.258-4.914-24.321-16.807-28.073z" style="" fill="#30cd9c" data-original="#30cd9c"></path><path d="m255.938 7.502-.181-.002a370.516 370.516 0 0 0-110.625 17.008c-11.909 3.74-19.132 15.811-16.836 28.081 2.606 13.927 4.783 28.127 6.53 42.325h116.681v-18.95c-1.749-14.332-3.949-28.812-6.619-43.08-1.892-10.123 2.701-20.096 11.05-25.382z" style="" fill="#0caf7b" data-original="#0caf7b"></path><path d="m251.508 75.963-26.873 18.946v65.893h147.08c.558-21.369 2.219-43.598 4.964-65.893-39.873-13.036-81.802-19.392-125.171-18.946z" style="" fill="#676fb2" data-original="#676fb2"></path><path d="M255.76 160.802V124.65c-.804-15.65-2.224-32.069-4.252-48.687-40.355.417-79.447 6.776-116.681 18.95 2.747 22.323 4.425 44.641 4.979 65.889H255.76z" style="" fill="#4c5699" data-original="#4c5699"></path><path d="M277.934 68.757c2.489-1.274 4.701-2.812 6.353-4.464 6.579-6.579 4.19-14.856-2.388-21.435-6.579-6.579-14.856-8.967-21.435-2.389-1.652 1.652-3.191 3.864-4.464 6.353-1.274-2.49-2.812-4.701-4.464-6.353-5.087-5.087-11.189-4.812-16.737-1.385-1.627 1.005-3.206 2.282-4.698 3.773-6.579 6.579-8.967 14.856-2.389 21.435 1.652 1.652 3.864 3.191 6.353 4.464-2.49 1.273-4.701 2.812-6.353 4.464-6.579 6.579-4.19 14.856 2.389 21.435 6.579 6.579 14.856 8.967 21.435 2.389 1.652-1.652 3.191-3.864 4.464-6.353 1.274 2.49 2.812 4.701 4.464 6.353 6.579 6.579 14.856 4.19 21.435-2.389 1.322-1.322 2.475-2.712 3.42-4.144 3.757-5.693 4.225-12.034-1.031-17.29-1.653-1.652-3.865-3.191-6.354-4.464z" style="" fill="#b0ebd8" data-original="#b0ebd8"></path><path d="M389.447 171.768c-1.049-7.871-6.391-14.151-13.746-17.362-38.037-16.6-78.473-24.612-119.941-24.612l-28.823 20.786 28.823 22.449c35.027 0 70.35 6.409 102.915 21.156 7.234 3.276 15.629 2.608 22.051-2.063a21.633 21.633 0 0 0 8.721-20.354z" style="" fill="#30cd9c" data-original="#30cd9c"></path><path d="M255.76 129.795c-41.467 0-81.903 8.011-119.94 24.612-7.356 3.21-12.697 9.49-13.746 17.362a21.636 21.636 0 0 0 8.721 20.355c6.422 4.67 14.818 5.425 22.052 2.15 32.566-14.747 67.888-21.243 102.914-21.243a30.575 30.575 0 0 1-.001-43.236z" style="" fill="#0caf7b" data-original="#0caf7b"></path><path d="M137.321 118.433a182.67 182.67 0 0 0-79.491-6.32c-13.786 1.953-24.812 12.594-26.804 26.375-6.22 43.039 2.995 87.87 27.663 125.557a261.533 261.533 0 0 0-11.775 14.824c-5.62 7.633-5.674 18.017-.034 25.634l.094.127a281.091 281.091 0 0 0-17.568 21.829 20.953 20.953 0 0 0 0 24.612A281.47 281.47 0 0 0 46.974 372.9c-5.718 7.651-5.653 18.173.006 25.852C95.235 464.229 171.953 504.5 256 504.5c85.805 0 161.877-41.678 209.136-105.908 5.592-7.602 5.58-17.968-.016-25.567l-.094-.128a281.69 281.69 0 0 0 17.568-21.828 20.953 20.953 0 0 0 0-24.612 281.705 281.705 0 0 0-17.568-21.829c5.717-7.651 5.652-18.172-.006-25.851a260.927 260.927 0 0 0-11.711-14.731c24.651-37.659 33.872-82.454 27.679-125.465-1.961-13.616-12.695-24.429-26.31-26.397a182.672 182.672 0 0 0-80.503 6.403" style="stroke-width:15;stroke-linecap:round;stroke-linejoin:round;stroke-miterlimit:10;stroke-dasharray:760,30,1000,0,1000,0;" fill="none" stroke="#000000" stroke-width="15" stroke-linecap="round" stroke-linejoin="round" stroke-miterlimit="10" stroke-dasharray="760,30,1000,0,1000,0" data-original="#000000"></path><path d="M122.701 168.778a128.992 128.992 0 0 0-30.202-5.716c-6.001-.409-11.042 4.575-10.641 10.577 1.257 18.832 6.604 36.982 15.678 53.376 43.549-33.702 96.916-53.984 158.225-53.984 60.544 0 115.377 20.603 158.677 54.033 9.09-16.407 14.447-34.575 15.705-53.425.401-6.005-4.645-10.987-10.649-10.578a128.94 128.94 0 0 0-30.631 5.853M277.934 68.757c2.489-1.274 4.701-2.812 6.353-4.464 6.579-6.579 4.19-14.856-2.388-21.435-6.579-6.579-14.856-8.967-21.435-2.389-1.652 1.652-3.191 3.864-4.464 6.353-1.274-2.49-2.812-4.701-4.464-6.353-5.087-5.086-11.189-4.812-16.737-1.385-1.627 1.005-3.206 2.282-4.698 3.773-6.579 6.579-8.967 14.856-2.389 21.435 1.652 1.652 3.864 3.19 6.353 4.464-2.49 1.273-4.701 2.812-6.353 4.464-1.249 1.249-2.171 2.56-2.807 3.908-2.711 5.753-.135 12.197 5.195 17.526 6.579 6.579 14.856 8.967 21.435 2.389 1.652-1.652 3.191-3.864 4.464-6.353 1.274 2.49 2.812 4.701 4.464 6.353 6.579 6.579 14.856 4.191 21.435-2.389 1.322-1.322 2.475-2.713 3.42-4.144 2.856-4.327 3.803-9.028 1.789-13.344-.636-1.361-1.559-2.686-2.82-3.947-1.652-1.65-3.864-3.189-6.353-4.462zM176.88 283.2v13.939M90.691 388.871l32.58-16.591M108.722 339.099H73.466M90.691 289.326l32.58 16.591M389.968 305.917l32.579-16.591M439.772 339.099h-35.256M389.967 372.28l32.58 16.591" style="stroke-width:15;stroke-linecap:round;stroke-linejoin:round;stroke-miterlimit:10;" fill="none" stroke="#000000" stroke-width="15" stroke-linecap="round" stroke-linejoin="round" stroke-miterlimit="10" data-original="#000000"></path><path d="M256 319.502c0 10.262-8.319 18.581-18.581 18.581-10.262 0-18.581-8.319-18.581-18.581" style="stroke-width:15;stroke-linecap:round;stroke-miterlimit:10;" fill="none" stroke="#000000" stroke-width="15" stroke-linecap="round" stroke-miterlimit="10" data-original="#000000"></path><path d="M293.162 319.502c0 10.262-8.319 18.581-18.581 18.581-10.262 0-18.581-8.319-18.581-18.581v-12.854" style="stroke-width:15;stroke-linecap:round;stroke-miterlimit:10;" fill="none" stroke="#000000" stroke-width="15" stroke-linecap="round" stroke-miterlimit="10" data-original="#000000"></path><path d="M242.366 293.014 256 306.648l13.633-13.634M336.358 283.2v13.939" style="stroke-width:15;stroke-linecap:round;stroke-linejoin:round;stroke-miterlimit:10;" fill="none" stroke="#000000" stroke-width="15" stroke-linecap="round" stroke-linejoin="round" stroke-miterlimit="10" data-original="#000000"></path><path d="M371.973 152.838c1.268-32.929 5.109-67.475 11.251-100.285 2.295-12.258-4.914-24.321-16.808-28.072C330.478 13.147 293.207 7.5 255.937 7.501l-.181-.002a370.516 370.516 0 0 0-110.625 17.008c-11.909 3.74-19.132 15.811-16.836 28.081 6.186 33.055 10 67.94 11.251 100.251" style="stroke-width:15;stroke-linecap:round;stroke-linejoin:round;stroke-miterlimit:10;stroke-dasharray:310,30,1000,0,1000,0;" fill="none" stroke="#000000" stroke-width="15" stroke-linecap="round" stroke-linejoin="round" stroke-miterlimit="10" stroke-dasharray="310,30,1000,0,1000,0" data-original="#000000"></path><path d="M358.676 194.186c7.233 3.274 15.63 2.607 22.051-2.063 13.276-9.656 11.903-30.328-5.026-37.717-1.238-.54-2.485-1.046-3.728-1.568-36.949-15.52-76.095-23.043-116.213-23.043-42.736 0-83.18 8.572-119.94 24.612-16.794 7.329-18.397 27.991-5.026 37.717 6.422 4.67 14.818 5.425 22.052 2.15M134.827 94.913c28.992-9.479 59.115-15.416 90.079-17.784M287.107 77.167c30.777 2.391 60.716 8.307 89.573 17.741" style="stroke-width:15;stroke-linecap:round;stroke-linejoin:round;stroke-miterlimit:10;" fill="none" stroke="#000000" stroke-width="15" stroke-linecap="round" stroke-linejoin="round" stroke-miterlimit="10" data-original="#000000"></path></g></svg>