<svg xmlns="http://www.w3.org/2000/svg" version="1.1" xmlns:xlink="http://www.w3.org/1999/xlink" width="512" height="512" x="0" y="0" viewBox="0 0 512 512" style="enable-background:new 0 0 512 512" xml:space="preserve" class=""><g><path fill="#ff6f4d" d="M210.655 160.717C167.302 117.364 107.992 99.75 51.637 107.8c-14.21 2.03-25.414 13.234-27.444 27.444-8.051 56.355 9.564 115.665 52.917 159.018a188.41 188.41 0 0 0 22.741 19.374l130.178-130.178a188.41 188.41 0 0 0-19.374-22.741z" opacity="1" data-original="#ff6f4d" class=""></path><path fill="#ff8f71" d="M434.89 294.262c43.353-43.353 60.967-102.663 52.917-159.018-2.03-14.21-13.234-25.414-27.444-27.444-56.355-8.05-115.665 9.564-159.018 52.917a188.343 188.343 0 0 0-19.496 22.908l130.133 130.133a188.343 188.343 0 0 0 22.908-19.496z" opacity="1" data-original="#ff8f71" class=""></path><g fill="#ffdbe0"><path d="M76.602 171.169c2.125 31.811 15.573 61.739 38.718 84.883l57.124-57.125c-22.953-22.953-52.845-36.495-84.907-38.673-6.179-.42-11.347 4.736-10.935 10.915zM424.464 160.254c-32.018 2.175-61.921 15.685-84.909 38.673l57.125 57.125c23.144-23.144 36.592-53.071 38.717-84.883.413-6.178-4.755-11.335-10.933-10.915z" fill="#ffdbe0" opacity="1" data-original="#ffdbe0" class=""></path></g><path fill="#ff8f71" d="M489.433 328.584a289.907 289.907 0 0 0-18.098-22.488c5.89-7.882 5.823-18.721-.006-26.631-27.945-37.92-65.733-68.228-109.554-87.144v-21.794H255.738l-125.483 38.666v262.294l94.276 38.664A269.745 269.745 0 0 0 256 512c88.394 0 166.763-42.935 215.448-109.105 5.761-7.831 5.748-18.51-.016-26.338l-.097-.131a289.891 289.891 0 0 0 18.098-22.487 21.591 21.591 0 0 0 0-25.355z" opacity="1" data-original="#ff8f71" class=""></path><path fill="#ff6f4d" d="M255.738 170.527H149.733v21.884c-43.671 18.955-81.312 49.34-109.18 87.217-5.762 7.83-5.749 18.51.016 26.339l.097.131a290.08 290.08 0 0 0-18.098 22.487 21.587 21.587 0 0 0 0 25.354 289.702 289.702 0 0 0 18.098 22.487c-5.89 7.882-5.823 18.721.006 26.632 42.824 58.11 108.559 98.254 183.859 107.093-34.747-41.824-55.65-95.583-55.65-154.232 0-74.504 33.86-141.116 86.857-185.392z" opacity="1" data-original="#ff6f4d" class=""></path><path fill="#ffdbe0" d="M269.351 273.066c-7.373-7.373-19.328-7.373-26.701 0s-7.373 14.177 0 21.55L256 307.967l13.351-13.351c7.373-7.373 7.373-14.177 0-21.55z" opacity="1" data-original="#ffdbe0" class=""></path><path fill="#30cd9c" d="M369.749 17.494C332.726 5.817 294.331.001 255.936.002l-32.247 17.021v73.024h156.633a707.173 707.173 0 0 1 6.742-43.633c2.364-12.629-5.062-25.056-17.315-28.92z" opacity="1" data-original="#30cd9c" class=""></path><path fill="#0caf7b" d="M255.936.002 255.75 0a381.724 381.724 0 0 0-113.964 17.521c-12.268 3.853-19.709 16.289-17.344 28.928 2.685 14.348 4.927 28.976 6.728 43.602h120.203V70.529c-1.802-14.765-4.068-29.682-6.818-44.38-1.952-10.427 2.781-20.702 11.381-26.147z" opacity="1" data-original="#0caf7b" class=""></path><path fill="#676fb2" d="m251.373 70.529-27.684 19.518v67.882h151.519c.575-22.014 2.286-44.914 5.114-67.882-41.076-13.429-84.271-19.977-128.949-19.518z" opacity="1" data-original="#676fb2" class=""></path><path fill="#4c5699" d="M255.753 157.929v-37.243c-.829-16.122-2.291-33.037-4.38-50.157-41.573.43-81.845 6.981-120.203 19.522 2.83 22.996 4.559 45.988 5.129 67.878z" opacity="1" data-original="#4c5699" class=""></path><path fill="#b0ebd8" d="M278.596 63.106c2.565-1.312 4.843-2.897 6.545-4.599 6.777-6.777 4.317-15.304-2.461-22.082-6.777-6.777-15.304-9.238-22.082-2.461-1.702 1.702-3.287 3.98-4.599 6.545-1.312-2.565-2.897-4.843-4.599-6.545-5.24-5.24-11.527-4.958-17.242-1.427-1.676 1.035-3.303 2.351-4.84 3.887-6.777 6.777-9.238 15.304-2.461 22.081 1.702 1.702 3.98 3.287 6.545 4.599-2.565 1.312-4.843 2.897-6.545 4.599-6.777 6.777-4.317 15.304 2.461 22.082 6.777 6.777 15.304 9.238 22.082 2.46 1.702-1.702 3.287-3.98 4.599-6.545 1.312 2.565 2.897 4.843 4.599 6.545 6.777 6.777 15.304 4.317 22.082-2.46 1.362-1.362 2.549-2.794 3.523-4.269 3.87-5.864 4.353-12.397-1.062-17.812-1.702-1.702-3.98-3.287-6.545-4.598z" opacity="1" data-original="#b0ebd8" class=""></path><path fill="#30cd9c" d="M393.475 169.226c-1.08-8.109-6.583-14.578-14.161-17.886-39.185-17.101-80.842-25.354-123.561-25.354L226.061 147.4l29.693 23.127c36.084 0 72.473 6.602 106.021 21.794 7.452 3.375 16.101 2.686 22.717-2.125a22.292 22.292 0 0 0 8.983-20.97z" opacity="1" data-original="#30cd9c" class=""></path><path fill="#0caf7b" d="M255.753 125.986c-42.719 0-84.375 8.253-123.56 25.354-7.578 3.307-13.081 9.777-14.161 17.886s2.368 16.158 8.984 20.969 15.265 5.589 22.717 2.215c33.548-15.192 69.937-21.884 106.02-21.884a31.497 31.497 0 0 1 0-44.54z" opacity="1" data-original="#0caf7b" class=""></path><path fill="#313d40" d="M174.492 276.294a7.726 7.726 0 0 0-7.726 7.726v14.361a7.726 7.726 0 1 0 15.452 0V284.02a7.725 7.725 0 0 0-7.726-7.726zM294.284 313.692a7.726 7.726 0 0 0-7.726 7.726c0 6.295-5.121 11.415-11.415 11.415s-11.415-5.121-11.415-11.415v-10.042l11.782-11.782a7.727 7.727 0 1 0-10.927-10.928L256 297.25l-8.582-8.583a7.727 7.727 0 1 0-10.927 10.928l11.782 11.782v10.042c0 6.295-5.121 11.415-11.415 11.415s-11.415-5.121-11.415-11.415a7.726 7.726 0 1 0-15.452 0c0 14.815 12.053 26.868 26.868 26.868 7.487 0 14.265-3.081 19.142-8.038 4.877 4.957 11.655 8.038 19.142 8.038 14.815 0 26.868-12.053 26.868-26.868a7.728 7.728 0 0 0-7.727-7.727zM338.784 276.294a7.725 7.725 0 0 0-7.726 7.726v14.361a7.726 7.726 0 1 0 15.452 0V284.02a7.726 7.726 0 0 0-7.726-7.726z" opacity="1" data-original="#313d40" class=""></path><g fill="#fff"><path d="m89.208 399.767 33.563-17.092a7.726 7.726 0 0 0-7.012-13.77l-33.563 17.092a7.726 7.726 0 0 0 7.012 13.77zM112.004 341.607a7.725 7.725 0 0 0-7.726-7.726h-36.32a7.726 7.726 0 1 0 0 15.452h36.319a7.727 7.727 0 0 0 7.727-7.726zM122.771 300.538l-33.563-17.092a7.724 7.724 0 0 0-10.391 3.379 7.725 7.725 0 0 0 3.379 10.391l33.563 17.092a7.726 7.726 0 1 0 7.012-13.77zM424.067 283.447l-33.562 17.092a7.726 7.726 0 0 0 7.012 13.77l33.562-17.092a7.726 7.726 0 0 0-7.012-13.77zM401.273 341.607a7.725 7.725 0 0 0 7.726 7.726h36.319a7.726 7.726 0 1 0 0-15.452h-36.319a7.724 7.724 0 0 0-7.726 7.726zM390.505 382.675l33.562 17.092c3.787 1.927 8.446.441 10.391-3.379a7.726 7.726 0 0 0-3.379-10.391l-33.562-17.092a7.727 7.727 0 0 0-7.012 13.77z" fill="#ffffff" opacity="1" data-original="#ffffff"></path></g></g></svg>