<svg xmlns="http://www.w3.org/2000/svg" version="1.1" xmlns:xlink="http://www.w3.org/1999/xlink" width="512" height="512" x="0" y="0" viewBox="0 0 512 512" style="enable-background:new 0 0 512 512" xml:space="preserve" class=""><g><path d="M137.321 118.433a182.67 182.67 0 0 0-79.491-6.32c-13.786 1.953-24.812 12.594-26.804 26.375-6.22 43.039 2.995 87.87 27.663 125.557a261.533 261.533 0 0 0-11.775 14.824c-5.62 7.633-5.674 18.017-.034 25.634l.094.127a281.265 281.265 0 0 0-17.568 21.828 20.953 20.953 0 0 0 0 24.612 281.265 281.265 0 0 0 17.568 21.828c-5.718 7.651-5.653 18.173.006 25.852C95.235 464.23 171.953 504.5 256 504.5c85.805 0 161.877-41.678 209.136-105.908 5.592-7.602 5.58-17.968-.016-25.567l-.094-.127a281.69 281.69 0 0 0 17.568-21.828 20.953 20.953 0 0 0 0-24.612 281.705 281.705 0 0 0-17.568-21.829c5.717-7.651 5.652-18.172-.006-25.851a260.547 260.547 0 0 0-11.711-14.73c24.651-37.659 33.872-82.454 27.679-125.465-1.961-13.616-12.695-24.429-26.31-26.397a182.672 182.672 0 0 0-80.503 6.403" style="stroke-width:15;stroke-linecap:round;stroke-linejoin:round;stroke-miterlimit:10;stroke-dasharray:760,30,1000,0,1000,0;" fill="none" stroke="#000000" stroke-width="15" stroke-linecap="round" stroke-linejoin="round" stroke-miterlimit="10" stroke-dasharray="760,30,1000,0,1000,0" data-original="#000000" class=""></path><path d="M122.701 168.778a128.992 128.992 0 0 0-30.202-5.716c-6.001-.409-11.042 4.575-10.641 10.577 1.257 18.832 6.604 36.982 15.678 53.376 43.549-33.702 96.916-53.984 158.225-53.984 60.544 0 115.377 20.603 158.677 54.033 9.09-16.407 14.447-34.575 15.705-53.425.401-6.005-4.645-10.987-10.649-10.578a128.94 128.94 0 0 0-30.631 5.853M277.934 68.757c2.489-1.274 4.701-2.812 6.353-4.464 6.579-6.579 4.19-14.856-2.388-21.435-6.579-6.579-14.856-8.967-21.435-2.389-1.652 1.652-3.191 3.864-4.464 6.354-1.274-2.49-2.812-4.701-4.464-6.354-5.087-5.086-11.189-4.812-16.737-1.385-1.627 1.005-3.206 2.282-4.698 3.773-6.579 6.579-8.967 14.856-2.389 21.435 1.652 1.652 3.864 3.19 6.353 4.464-2.49 1.273-4.701 2.812-6.353 4.464-1.249 1.249-2.171 2.56-2.807 3.908-2.711 5.753-.135 12.197 5.195 17.526 6.579 6.579 14.856 8.967 21.435 2.389 1.652-1.652 3.191-3.864 4.464-6.354 1.274 2.49 2.812 4.701 4.464 6.354 6.579 6.579 14.856 4.19 21.435-2.389 1.322-1.322 2.475-2.712 3.42-4.144 2.856-4.327 3.803-9.028 1.789-13.344-.636-1.361-1.559-2.686-2.82-3.947-1.652-1.65-3.864-3.189-6.353-4.462zM176.88 283.2v13.939M90.691 388.871l32.58-16.591M108.722 339.099H73.466M90.691 289.326l32.58 16.591M389.968 305.917l32.579-16.591M439.772 339.099h-35.256M389.967 372.28l32.58 16.591" style="stroke-width:15;stroke-linecap:round;stroke-linejoin:round;stroke-miterlimit:10;" fill="none" stroke="#000000" stroke-width="15" stroke-linecap="round" stroke-linejoin="round" stroke-miterlimit="10" data-original="#000000" class=""></path><path d="M256 319.502c0 10.262-8.319 18.581-18.581 18.581s-18.581-8.319-18.581-18.581" style="stroke-width:15;stroke-linecap:round;stroke-miterlimit:10;" fill="none" stroke="#000000" stroke-width="15" stroke-linecap="round" stroke-miterlimit="10" data-original="#000000" class=""></path><path d="M293.162 319.502c0 10.262-8.319 18.581-18.581 18.581-10.262 0-18.581-8.319-18.581-18.581v-12.854" style="stroke-width:15;stroke-linecap:round;stroke-miterlimit:10;" fill="none" stroke="#000000" stroke-width="15" stroke-linecap="round" stroke-miterlimit="10" data-original="#000000" class=""></path><path d="M242.366 293.014 256 306.648l13.633-13.634M336.358 283.2v13.939" style="stroke-width:15;stroke-linecap:round;stroke-linejoin:round;stroke-miterlimit:10;" fill="none" stroke="#000000" stroke-width="15" stroke-linecap="round" stroke-linejoin="round" stroke-miterlimit="10" data-original="#000000" class=""></path><path d="M371.973 152.838c1.268-32.929 5.109-67.475 11.251-100.285 2.295-12.258-4.914-24.321-16.808-28.072C330.478 13.147 293.207 7.5 255.938 7.501l-.181-.001a370.516 370.516 0 0 0-110.625 17.008c-11.909 3.74-19.132 15.811-16.836 28.081 6.186 33.055 10 67.94 11.251 100.25" style="stroke-width:15;stroke-linecap:round;stroke-linejoin:round;stroke-miterlimit:10;stroke-dasharray:310,30,1000,0,1000,0;" fill="none" stroke="#000000" stroke-width="15" stroke-linecap="round" stroke-linejoin="round" stroke-miterlimit="10" stroke-dasharray="310,30,1000,0,1000,0" data-original="#000000" class=""></path><path d="M358.677 194.187c7.233 3.274 15.629 2.607 22.05-2.063 13.276-9.656 11.903-30.328-5.026-37.717-1.238-.54-2.485-1.046-3.728-1.568-36.949-15.52-76.095-23.043-116.213-23.043-42.736 0-83.18 8.572-119.94 24.612-16.794 7.329-18.397 27.991-5.026 37.717 6.422 4.67 14.818 5.425 22.052 2.15M134.827 94.913c28.992-9.479 59.115-15.416 90.079-17.784M287.107 77.167c30.777 2.391 60.716 8.307 89.573 17.741" style="stroke-width:15;stroke-linecap:round;stroke-linejoin:round;stroke-miterlimit:10;" fill="none" stroke="#000000" stroke-width="15" stroke-linecap="round" stroke-linejoin="round" stroke-miterlimit="10" data-original="#000000" class=""></path></g></svg>