<svg xmlns="http://www.w3.org/2000/svg" version="1.1" xmlns:xlink="http://www.w3.org/1999/xlink" width="512" height="512" x="0" y="0" viewBox="0 0 512 512" style="enable-background:new 0 0 512 512" xml:space="preserve" class=""><g><path d="M18.818 52.136c.171-.523.352-1.045.533-1.558 6.763-19.345 25.254-32.097 45.744-31.685C171.004 21.044 204.126 93.7 204.126 93.7l-75.168 51.02-110.14-92.584z" style="" fill="#fdbc73" data-original="#fdbc73"></path><path d="m81.864 105.133 47.093 39.586 75.168-51.02s-5.689-12.462-19.866-27.214c-28.259 5.208-54.44 13.644-78.298 25.267a257.21 257.21 0 0 0-24.097 13.381z" style="" fill="#fda640" data-original="#fda640"></path><path d="M128.957 144.719 22.476 216.984C-1.381 140.438 7.834 84.414 18.818 52.136c53.411 4.05 97.327 42.106 110.139 92.583z" style="" fill="#fdb2bd" data-original="#fdb2bd"></path><path d="M493.183 52.136a71.177 71.177 0 0 0-.533-1.558c-6.763-19.345-25.254-32.097-45.744-31.685C340.997 21.044 307.875 93.7 307.875 93.7l75.168 51.02 110.14-92.584z" style="" fill="#60819a" data-original="#60819a"></path><path d="M382.676 81.682c-17.31-6.549-35.681-11.595-54.975-15.156C313.553 81.261 307.874 93.7 307.874 93.7l75.168 51.02 47.102-39.594c-14.583-9.15-30.417-16.993-47.468-23.444z" style="" fill="#4c7187" data-original="#4c7187"></path><path d="m383.043 144.719 106.482 72.264c23.857-76.545 14.642-132.57 3.658-164.848-53.412 4.051-97.328 42.107-110.14 92.584z" style="" fill="#fdb2bd" data-original="#fdb2bd"></path><path d="M500.163 173.206a207.226 207.226 0 0 0-16.657-22.319c-20.051-23.404-44.716-42.545-73.536-57.165-12.678 14.415-22.055 31.804-26.927 50.997l106.482 72.264c4.812-15.441 8.26-30.032 10.638-43.777z" style="" fill="#fd8b9b" data-original="#fd8b9b"></path><path d="M119.099 118.722c39.644-19.315 86.584-28.51 136.901-28.51 83.519 0 157.733 25.344 204.723 80.193 57.16 66.707 57.16 165.762 0 232.459-46.99 54.849-121.204 90.252-204.723 90.252S98.267 457.713 51.277 402.865c-21.073-24.591-34.379-53.573-39.906-83.71l107.728-200.433z" style="" fill="#fff2e3" data-original="#fff2e3"></path><path d="m22.476 216.983 106.482-72.264c-4.872-19.192-14.249-36.58-26.925-50.995-28.833 14.641-53.565 33.849-73.536 57.161a209.856 209.856 0 0 0-16.662 22.298c2.377 13.753 5.825 28.351 10.641 43.8z" style="" fill="#fd8b9b" data-original="#fd8b9b"></path><path d="M60.396 242.64c0-5.217.162-10.396.452-15.54l-49.477 92.054c5.527 30.138 18.832 59.12 39.906 83.71 40.529 47.307 101.319 80.125 170.855 88.262C126.864 448.918 60.396 353.548 60.396 242.64z" style="" fill="#ffe0b6" data-original="#ffe0b6"></path><path d="M11.371 319.154c-9.486-51.623 3.819-106.633 39.906-148.749 18.682-21.807 41.664-38.941 67.822-51.683 0 0 53.373 23.95 61.07 72.822 4.908 31.17 35.008 52.731 33.689 85.582-.703 17.504-7.831 34.42-19.107 47.733-21.498 25.382-52.764 30.876-83.977 23.191-32.636-8.035-63.12-37.617-98.332-29.158l-1.071.262z" style="" fill="#fdbc73" data-original="#fdbc73"></path><path d="m374.948 175.402-23.98-8.769a40.595 40.595 0 0 0-40.114 7.094c-12.593 10.621-14.264 29.411-3.743 42.087a56.082 56.082 0 0 0 55.016 18.995l8.865-1.919c13.802-2.987 23.651-15.196 23.651-29.317a29.998 29.998 0 0 0-19.695-28.171z" style="" fill="#60819a" data-original="#60819a"></path><path d="M60.396 242.64c0-34.851 6.571-68.165 18.527-98.782-10.011 7.928-19.265 16.763-27.646 26.547-36.087 42.117-49.392 97.126-39.906 148.749l1.071-.262c22.552-5.418 43.165 4.768 63.646 14.904-10.149-28.495-15.692-59.176-15.692-91.156z" style="" fill="#fda640" data-original="#fda640"></path><path d="m374.948 175.402-23.98-8.769a40.595 40.595 0 0 0-40.114 7.094c-12.593 10.621-14.264 29.411-3.743 42.087h0a56.082 56.082 0 0 0 55.016 18.995l8.865-1.919c13.802-2.987 23.651-15.196 23.651-29.317v0a29.998 29.998 0 0 0-19.695-28.171zM167.796 297.93v16.926M343.961 297.93v16.926" style="stroke-width:15;stroke-linecap:round;stroke-linejoin:round;stroke-miterlimit:10;" fill="none" stroke="#000000" stroke-width="15" stroke-linecap="round" stroke-linejoin="round" stroke-miterlimit="10" data-original="#000000"></path><path d="M256 331.31c0 8.673-7.031 15.703-15.703 15.703-8.673 0-15.703-7.031-15.703-15.703M287.407 331.31c0 8.673-7.031 15.703-15.703 15.703-8.673 0-15.703-7.031-15.703-15.703M419.514 454.294l-36.471-48.726M473.206 407.757l-59.36-35.526M92.756 454.294l36.472-48.726M39.064 407.757l59.36-35.526" style="stroke-width:15;stroke-linecap:round;stroke-miterlimit:10;" fill="none" stroke="#000000" stroke-width="15" stroke-linecap="round" stroke-miterlimit="10" data-original="#000000"></path><path d="M51.276 170.406c18.679-21.804 41.658-38.936 67.812-51.678C99.963 81.616 62.586 55.454 18.817 52.136 7.834 84.413-1.381 140.434 22.473 216.975a177.56 177.56 0 0 1 28.803-46.569z" style="stroke-width:15;stroke-linecap:round;stroke-linejoin:round;stroke-miterlimit:10;" fill="none" stroke="#000000" stroke-width="15" stroke-linecap="round" stroke-linejoin="round" stroke-miterlimit="10" data-original="#000000"></path><path d="M111.378 24.988c-13.601-3.497-28.962-5.743-46.283-6.095-20.49-.412-38.981 12.34-45.744 31.685a71.177 71.177 0 0 0-.533 1.558c43.768 3.318 81.146 29.48 100.271 66.592a.037.037 0 0 1 .011-.005c25.642-12.493 54.34-20.746 85.026-25.022h0s-16.877-36.996-65.028-58.97M392.904 118.742c19.124-37.119 56.504-63.288 100.279-66.607a73.039 73.039 0 0 0-.533-1.558c-6.763-19.345-25.254-32.097-45.744-31.685-105.909 2.15-139.032 74.807-139.032 74.807l.014.009c30.686 4.279 59.374 12.544 85.016 25.034z" style="stroke-width:15;stroke-linecap:round;stroke-linejoin:round;stroke-miterlimit:10;" fill="none" stroke="#000000" stroke-width="15" stroke-linecap="round" stroke-linejoin="round" stroke-miterlimit="10" data-original="#000000"></path><path d="M460.723 170.406a177.578 177.578 0 0 1 28.805 46.568c23.853-76.54 14.638-132.561 3.655-164.838-43.774 3.319-81.155 29.488-100.279 66.607 26.153 12.739 49.143 29.862 67.819 51.663z" style="stroke-width:15;stroke-linecap:round;stroke-linejoin:round;stroke-miterlimit:10;" fill="none" stroke="#000000" stroke-width="15" stroke-linecap="round" stroke-linejoin="round" stroke-miterlimit="10" data-original="#000000"></path><path d="M500.022 322.288c10.616-52.521-2.479-108.912-39.299-151.882C413.733 115.556 339.52 90.212 256 90.212c-50.316 0-97.257 9.195-136.901 28.51 0 0 53.374 23.95 61.07 72.822 4.908 31.17 35.008 52.731 33.689 85.582-.703 17.504-7.831 34.42-19.107 47.734-21.498 25.382-52.764 30.876-83.977 23.191-32.636-8.035-63.12-37.617-98.333-29.157l-1.07.262c5.527 30.138 18.832 59.12 39.905 83.71C98.267 457.714 172.481 493.117 256 493.117s157.733-35.403 204.723-90.252a177.489 177.489 0 0 0 31.071-52.195" style="stroke-width:15;stroke-linecap:round;stroke-linejoin:round;stroke-miterlimit:10;" fill="none" stroke="#000000" stroke-width="15" stroke-linecap="round" stroke-linejoin="round" stroke-miterlimit="10" data-original="#000000"></path><path d="M11.371 319.154c-9.486-51.623 3.819-106.633 39.906-148.749 18.682-21.807 41.664-38.941 67.822-51.683 0 0 53.373 23.95 61.07 72.822 4.908 31.17 35.008 52.731 33.689 85.582-.703 17.504-7.831 34.42-19.107 47.733-21.498 25.382-52.764 30.876-83.977 23.191-32.636-8.035-63.12-37.617-98.332-29.158l-1.071.262z" style="stroke-width:15;stroke-linecap:round;stroke-linejoin:round;stroke-miterlimit:10;" fill="none" stroke="#000000" stroke-width="15" stroke-linecap="round" stroke-linejoin="round" stroke-miterlimit="10" data-original="#000000"></path></g></svg>