<svg xmlns="http://www.w3.org/2000/svg" version="1.1" xmlns:xlink="http://www.w3.org/1999/xlink" width="512" height="512" x="0" y="0" viewBox="0 0 512 512" style="enable-background:new 0 0 512 512" xml:space="preserve" class=""><g><path fill="#fdbc73" d="M11.659 45.983c.176-.538.362-1.077.549-1.605 6.967-19.929 26.016-33.066 47.125-32.642C168.438 13.952 202.56 88.801 202.56 88.801l-77.437 52.56z" opacity="1" data-original="#fdbc73"></path><path fill="#fda640" d="m76.609 100.58 48.514 40.781 77.437-52.56s-5.861-12.838-20.466-28.036c-29.112 5.365-56.084 14.056-80.662 26.03a264.678 264.678 0 0 0-24.823 13.785z" opacity="1" data-original="#fda640"></path><path fill="#fdb2bd" d="M125.123 141.361 15.427 215.806C-9.15 136.951.344 79.235 11.659 45.983c55.024 4.172 100.265 43.377 113.464 95.378z" opacity="1" data-original="#fdb2bd"></path><path fill="#60819a" d="M500.341 45.983a70.298 70.298 0 0 0-.549-1.605c-6.967-19.929-26.016-33.066-47.125-32.642C343.562 13.952 309.44 88.801 309.44 88.801l77.437 52.56z" opacity="1" data-original="#60819a"></path><path fill="#4c7187" d="M386.499 76.421c-17.832-6.747-36.758-11.945-56.634-15.614-14.575 15.18-20.425 27.994-20.425 27.994l77.437 52.56 48.523-40.789c-15.024-9.426-31.335-17.506-48.901-24.151z" opacity="1" data-original="#4c7187"></path><path fill="#fdb2bd" d="m386.877 141.361 109.696 74.445c24.577-78.855 15.084-136.571 3.768-169.823-55.024 4.172-100.265 43.377-113.464 95.378z" opacity="1" data-original="#fdb2bd"></path><path fill="#fd8b9b" d="M507.532 170.707a213.425 213.425 0 0 0-17.16-22.992c-20.657-24.111-46.066-43.829-75.755-58.89-13.06 14.85-22.721 32.764-27.74 52.536l109.696 74.445c4.958-15.908 8.509-30.939 10.959-45.099z" opacity="1" data-original="#fd8b9b"></path><path fill="#fff2e3" d="M114.967 114.579c40.841-19.898 89.198-29.37 141.033-29.37 86.04 0 162.494 26.109 210.902 82.613 58.885 68.72 58.885 170.765 0 239.475C418.494 463.801 342.04 500.273 256 500.273S93.506 463.801 45.098 407.297c-21.709-25.333-35.416-55.189-41.11-86.237z" opacity="1" data-original="#fff2e3" class=""></path><path fill="#fd8b9b" d="m15.427 215.806 109.696-74.445c-5.019-19.771-14.679-37.684-27.738-52.534-29.704 15.083-55.181 34.87-75.756 58.886a216.221 216.221 0 0 0-17.165 22.971c2.45 14.167 6.003 29.206 10.963 45.122z" opacity="1" data-original="#fd8b9b"></path><path fill="#ffe0b6" d="M54.492 242.237c0-5.374.167-10.709.466-16.009L3.988 321.06c5.694 31.047 19.401 60.904 41.11 86.237 41.753 48.735 104.377 82.544 176.012 90.926C122.967 454.74 54.492 356.492 54.492 242.237z" opacity="1" data-original="#ffe0b6"></path><path fill="#fdbc73" d="M3.988 321.06c-9.773-53.181 3.934-109.851 41.11-153.238 19.245-22.465 42.922-40.116 69.869-53.243 0 0 54.984 24.672 62.913 75.02 5.056 32.11 36.065 54.323 34.706 88.165-.724 18.033-8.067 35.459-19.684 49.174-22.147 26.148-54.357 31.808-86.511 23.891-33.621-8.278-65.025-38.752-101.3-30.038l-1.103.269z" opacity="1" data-original="#fdbc73"></path><path fill="#60819a" d="m378.538 172.97-24.704-9.034a41.822 41.822 0 0 0-41.325 7.308c-12.974 10.942-14.695 30.298-3.856 43.358a57.772 57.772 0 0 0 56.676 19.568l9.132-1.976c14.218-3.077 24.365-15.654 24.365-30.202a30.9 30.9 0 0 0-20.288-29.022z" opacity="1" data-original="#60819a"></path><g fill="#455763"><path d="M165.133 291.469a7.725 7.725 0 0 0-7.726 7.726v17.437a7.726 7.726 0 1 0 15.452 0v-17.437a7.725 7.725 0 0 0-7.726-7.726zM346.615 291.469a7.725 7.725 0 0 0-7.726 7.726v17.437a7.726 7.726 0 1 0 15.452 0v-17.437a7.725 7.725 0 0 0-7.726-7.726zM288.355 325.857a7.725 7.725 0 0 0-7.726 7.726c0 4.66-3.791 8.451-8.451 8.451s-8.451-3.791-8.451-8.451a7.726 7.726 0 1 0-15.452 0c0 4.66-3.792 8.451-8.452 8.451s-8.451-3.791-8.451-8.451a7.726 7.726 0 1 0-15.452 0c0 13.181 10.723 23.904 23.903 23.904 6.235 0 11.918-2.402 16.178-6.325 4.26 3.924 9.943 6.325 16.177 6.325 13.18 0 23.903-10.723 23.903-23.904a7.726 7.726 0 0 0-7.726-7.726z" fill="#455763" opacity="1" data-original="#455763"></path></g><path fill="#455763" d="m418.264 464.909-37.572-50.197a7.726 7.726 0 1 1 12.37-9.259l37.572 50.197a7.726 7.726 0 1 1-12.37 9.259zM475.793 418.967l-61.151-36.599a7.727 7.727 0 1 1 7.936-13.26l61.151 36.599a7.727 7.727 0 1 1-7.936 13.26zM83.2 466.465a7.725 7.725 0 0 1-1.555-10.815l37.571-50.197a7.726 7.726 0 1 1 12.37 9.259l-37.571 50.197a7.726 7.726 0 0 1-10.815 1.556zM25.887 416.305a7.727 7.727 0 0 1 2.662-10.598l61.152-36.599a7.727 7.727 0 0 1 7.936 13.26l-61.152 36.599a7.726 7.726 0 0 1-10.598-2.662z" opacity="1" data-original="#455763"></path><path fill="#fda640" d="M54.492 242.237c0-35.903 6.769-70.222 19.087-101.763-10.313 8.168-19.846 17.269-28.481 27.348C7.922 211.209-5.785 267.879 3.988 321.06l1.103-.27c23.233-5.581 44.468 4.912 65.566 15.354-10.455-29.355-16.165-60.962-16.165-93.907z" opacity="1" data-original="#fda640"></path></g></svg>