<svg xmlns="http://www.w3.org/2000/svg" version="1.1" xmlns:xlink="http://www.w3.org/1999/xlink" width="512" height="512" x="0" y="0" viewBox="0 0 512 512" style="enable-background:new 0 0 512 512" xml:space="preserve" class=""><g><path d="m374.948 175.402-23.98-8.769a40.595 40.595 0 0 0-40.114 7.094c-12.593 10.621-14.264 29.411-3.743 42.087h0a56.082 56.082 0 0 0 55.016 18.995l8.865-1.919c13.802-2.987 23.651-15.196 23.651-29.317v0a29.998 29.998 0 0 0-19.695-28.171zM167.796 297.93v16.926M343.961 297.93v16.926" style="stroke-width:15;stroke-linecap:round;stroke-linejoin:round;stroke-miterlimit:10;" fill="none" stroke="#000000" stroke-width="15" stroke-linecap="round" stroke-linejoin="round" stroke-miterlimit="10" data-original="#000000"></path><path d="M256 331.31c0 8.673-7.031 15.703-15.703 15.703-8.673 0-15.703-7.031-15.703-15.703M287.407 331.31c0 8.673-7.031 15.703-15.703 15.703-8.673 0-15.703-7.031-15.703-15.703M419.514 454.294l-36.471-48.726M473.206 407.757l-59.36-35.526M92.756 454.294l36.472-48.726M39.064 407.757l59.36-35.526" style="stroke-width:15;stroke-linecap:round;stroke-miterlimit:10;" fill="none" stroke="#000000" stroke-width="15" stroke-linecap="round" stroke-miterlimit="10" data-original="#000000"></path><path d="M51.276 170.406c18.679-21.804 41.658-38.936 67.812-51.678C99.963 81.616 62.586 55.454 18.817 52.136 7.834 84.413-1.381 140.434 22.473 216.975a177.56 177.56 0 0 1 28.803-46.569z" style="stroke-width:15;stroke-linecap:round;stroke-linejoin:round;stroke-miterlimit:10;" fill="none" stroke="#000000" stroke-width="15" stroke-linecap="round" stroke-linejoin="round" stroke-miterlimit="10" data-original="#000000"></path><path d="M111.378 24.988c-13.601-3.497-28.962-5.743-46.283-6.095-20.49-.412-38.981 12.34-45.744 31.685a71.177 71.177 0 0 0-.533 1.558c43.768 3.318 81.146 29.48 100.271 66.592a.037.037 0 0 1 .011-.005c25.642-12.493 54.34-20.746 85.026-25.022h0s-16.877-36.996-65.028-58.97M392.904 118.742c19.124-37.119 56.504-63.288 100.279-66.607a73.039 73.039 0 0 0-.533-1.558c-6.763-19.345-25.254-32.097-45.744-31.685-105.909 2.15-139.032 74.807-139.032 74.807l.014.009c30.686 4.279 59.374 12.544 85.016 25.034z" style="stroke-width:15;stroke-linecap:round;stroke-linejoin:round;stroke-miterlimit:10;" fill="none" stroke="#000000" stroke-width="15" stroke-linecap="round" stroke-linejoin="round" stroke-miterlimit="10" data-original="#000000"></path><path d="M460.723 170.406a177.578 177.578 0 0 1 28.805 46.568c23.853-76.54 14.638-132.561 3.655-164.838-43.774 3.319-81.155 29.488-100.279 66.607 26.153 12.739 49.143 29.862 67.819 51.663z" style="stroke-width:15;stroke-linecap:round;stroke-linejoin:round;stroke-miterlimit:10;" fill="none" stroke="#000000" stroke-width="15" stroke-linecap="round" stroke-linejoin="round" stroke-miterlimit="10" data-original="#000000"></path><path d="M500.022 322.288c10.616-52.521-2.479-108.912-39.299-151.882C413.733 115.556 339.52 90.212 256 90.212c-50.316 0-97.257 9.195-136.901 28.51 0 0 53.374 23.95 61.07 72.822 4.908 31.17 35.008 52.731 33.689 85.582-.703 17.504-7.831 34.42-19.107 47.734-21.498 25.382-52.764 30.876-83.977 23.191-32.636-8.035-63.12-37.617-98.333-29.157l-1.07.262c5.527 30.138 18.832 59.12 39.905 83.71C98.267 457.714 172.481 493.117 256 493.117s157.733-35.403 204.723-90.252a177.489 177.489 0 0 0 31.071-52.195" style="stroke-width:15;stroke-linecap:round;stroke-linejoin:round;stroke-miterlimit:10;" fill="none" stroke="#000000" stroke-width="15" stroke-linecap="round" stroke-linejoin="round" stroke-miterlimit="10" data-original="#000000"></path><path d="M11.371 319.154c-9.486-51.623 3.819-106.633 39.906-148.749 18.682-21.807 41.664-38.941 67.822-51.683 0 0 53.373 23.95 61.07 72.822 4.908 31.17 35.008 52.731 33.689 85.582-.703 17.504-7.831 34.42-19.107 47.733-21.498 25.382-52.764 30.876-83.977 23.191-32.636-8.035-63.12-37.617-98.332-29.158l-1.071.262z" style="stroke-width:15;stroke-linecap:round;stroke-linejoin:round;stroke-miterlimit:10;" fill="none" stroke="#000000" stroke-width="15" stroke-linecap="round" stroke-linejoin="round" stroke-miterlimit="10" data-original="#000000"></path></g></svg>