<svg xmlns="http://www.w3.org/2000/svg" version="1.1" xmlns:xlink="http://www.w3.org/1999/xlink" width="512" height="512" x="0" y="0" viewBox="0 0 512 512" style="enable-background:new 0 0 512 512" xml:space="preserve" class=""><g><path fill="#ff6e80" d="M136.447 460.482c34.686 10.853 74.909 16.356 119.553 16.356s84.867-5.503 119.555-16.356c18.647-5.836 35.61-13.146 50.851-21.898 18.171-10.435 21.376-35.22 6.423-49.899-4.362-4.282-8.884-7.626-13.089-9.663H92.26c-4.205 2.037-8.727 5.381-13.089 9.662-14.954 14.678-11.748 39.464 6.423 49.899 15.242 8.753 32.205 16.064 50.853 21.899z" opacity="1" data-original="#ff6e80"></path><circle cx="256" cy="472.127" r="39.873" fill="#f7e969" transform="rotate(-8.11 255.547 471.486)" opacity="1" data-original="#f7e969"></circle><path fill="#5972a4" d="M29.243 8.77c7.853 52.955 58.384 135.463 94.849 140.748l76.048-54.161c-14.27-24.581-37.318-47.307-62.324-64.403C96.922 2.995 50.789-9.905 29.243 8.77z" opacity="1" data-original="#5972a4"></path><path fill="#3b5a9a" d="m124.092 149.518 76.048-54.161c-12.045-20.749-30.354-40.162-50.806-55.997a261.847 261.847 0 0 0-29.105 13.78c-20.91 11.544-39.572 25.544-55.714 41.667 18.452 28.952 40.865 51.999 59.577 54.711z" opacity="1" data-original="#3b5a9a"></path><path fill="#ffbdd7" d="M90.482 72.342c-2.833-4.632-5.781-9.145-8.872-13.501C67.183 38.511 49.9 21.335 29.243 8.77 6.459 28.517 11.204 72.334 23.955 113.055a347.352 347.352 0 0 0 7.942 22.535c34.579-6.007 48.383-28.666 58.585-63.248z" opacity="1" data-original="#ffbdd7" class=""></path><path fill="#ffaacc" d="M31.897 135.591c10.044 25.705 22.005 47.763 30.113 58.142l62.082-44.215c-8.497-27.787-19.492-54.097-33.609-77.176-23.545 17.633-43.266 38.933-58.586 63.249z" opacity="1" data-original="#ffaacc" class=""></path><path fill="#ec9a83" d="M482.757 8.77c-7.853 52.955-58.384 135.463-94.849 140.748L311.86 95.357c14.27-24.581 37.318-47.307 62.324-64.403C415.078 2.995 461.211-9.905 482.757 8.77z" opacity="1" data-original="#ec9a83" class=""></path><path fill="#de8957" d="M387.908 149.518 311.86 95.357c12.045-20.749 30.354-40.162 50.806-55.997a261.847 261.847 0 0 1 29.105 13.78c20.909 11.545 39.571 25.544 55.713 41.667-18.451 28.952-40.864 51.999-59.576 54.711z" opacity="1" data-original="#de8957" class=""></path><path fill="#ffbdd7" d="M421.518 72.342c2.833-4.632 5.781-9.145 8.872-13.501 14.427-20.331 31.71-37.506 52.367-50.072 22.784 19.747 18.039 63.564 5.288 104.285a347.352 347.352 0 0 1-7.942 22.535c-34.579-6.006-48.383-28.665-58.585-63.247z" opacity="1" data-original="#ffbdd7" class=""></path><path fill="#ffaacc" d="M480.104 135.591c-10.044 25.705-22.005 47.763-30.113 58.142l-62.082-44.215c8.497-27.787 19.492-54.097 33.609-77.176 23.544 17.633 43.265 38.933 58.586 63.249z" opacity="1" data-original="#ffaacc" class=""></path><path fill="#eeecff" d="M466.609 188.553c-17.487-44.8-50.255-80.654-92.264-103.849-31.441-17.36-68.061-27.623-107.324-29.245-123.38 112.109-110.867 317.211 13.931 378.945 29.466-1.565 57.223-5.996 82.128-13.789 43.767-13.696 78.749-37.733 98.831-74.66 12.049-22.156 18.734-48.952 18.734-80.938 0-27.551-4.96-53.213-14.036-76.464z" opacity="1" data-original="#eeecff" class=""></path><path fill="#d3d3ff" d="M267.021 55.46A266.692 266.692 0 0 0 256 55.227c-43.428 0-83.979 10.504-118.344 29.478-42.009 23.195-74.777 59.048-92.265 103.848-9.076 23.251-14.036 48.912-14.036 76.464 0 31.986 6.685 58.782 18.734 80.938 20.082 36.927 55.064 60.964 98.831 74.66 31.831 9.96 68.308 14.451 107.079 14.451 8.437 0 16.756-.226 24.951-.662-59.964-104.267-71.404-250.128-13.929-378.944z" opacity="1" data-original="#d3d3ff" class=""></path><g fill="#ffa1ac"><path d="M203.977 251.618c-.029 13.379-13.673 24.195-30.473 24.158s-30.396-10.912-30.367-24.291 13.672-24.195 30.473-24.158c16.8.036 30.396 10.912 30.367 24.291z" fill="#ffa1ac" opacity="1" data-original="#ffa1ac"></path><ellipse cx="338.443" cy="251.912" rx="24.225" ry="30.42" transform="rotate(-89.89 338.387 251.92)" fill="#ffa1ac" opacity="1" data-original="#ffa1ac"></ellipse></g><path fill="#425460" d="M191.578 241.008a7.5 7.5 0 0 1-7.5-7.5v-12.362c0-4.143 3.358-7.5 7.5-7.5s7.5 3.357 7.5 7.5v12.362a7.5 7.5 0 0 1-7.5 7.5zM320.244 241.008a7.5 7.5 0 0 1-7.5-7.5v-12.362a7.5 7.5 0 0 1 7.5-7.5c4.143 0 7.5 3.357 7.5 7.5v12.362a7.5 7.5 0 0 1-7.5 7.5zM270.99 263.271a22.3 22.3 0 0 1-14.892-5.684 22.305 22.305 0 0 1-14.892 5.684c-12.347 0-22.392-10.045-22.392-22.392 0-4.143 3.358-7.5 7.5-7.5s7.5 3.357 7.5 7.5c0 4.076 3.316 7.392 7.392 7.392s7.392-3.315 7.392-7.392a7.5 7.5 0 0 1 7.5-7.5c4.143 0 7.5 3.357 7.5 7.5 0 4.076 3.315 7.392 7.392 7.392 4.076 0 7.392-3.315 7.392-7.392 0-4.143 3.357-7.5 7.5-7.5s7.5 3.357 7.5 7.5c0 12.347-10.045 22.392-22.392 22.392z" opacity="1" data-original="#425460"></path><g fill="#5972a4"><path d="M94.482 280.819a7.492 7.492 0 0 1-6.223-3.305 7.499 7.499 0 0 1 2.019-10.412c7.211-4.869 17.518-9.71 29.019-13.63 10.921-3.723 22.018-6.278 30.446-7.011 4.127-.365 7.763 2.695 8.121 6.822a7.499 7.499 0 0 1-6.822 8.121c-7.273.633-17.08 2.916-26.905 6.265-10.28 3.505-19.324 7.718-25.465 11.864a7.455 7.455 0 0 1-4.19 1.286zM128.414 323.487a7.5 7.5 0 0 1-6.332-11.51c4.042-6.391 10.252-13.121 17.487-18.953 7.745-6.244 16.145-11.091 24.293-14.019a7.5 7.5 0 0 1 5.072 14.117c-6.593 2.368-13.492 6.373-19.951 11.579-5.988 4.826-11.039 10.258-14.224 15.293a7.49 7.49 0 0 1-6.345 3.493zM417.715 280.819a7.464 7.464 0 0 1-4.19-1.285c-6.14-4.146-15.184-8.359-25.465-11.864-9.825-3.349-19.632-5.632-26.905-6.265a7.498 7.498 0 0 1-6.822-8.121c.358-4.126 4.002-7.186 8.121-6.822 8.427.732 19.524 3.288 30.446 7.011 11.503 3.921 21.809 8.762 29.02 13.63a7.5 7.5 0 0 1-4.205 13.716zM383.783 323.487a7.495 7.495 0 0 1-6.346-3.492c-3.185-5.035-8.236-10.467-14.224-15.293-6.46-5.207-13.358-9.211-19.951-11.579a7.5 7.5 0 1 1 5.073-14.117c8.146 2.927 16.547 7.774 24.293 14.019 7.235 5.832 13.445 12.562 17.487 18.953a7.5 7.5 0 0 1-6.332 11.509z" fill="#5972a4" opacity="1" data-original="#5972a4"></path></g><path fill="#ffaacc" d="M261.42 216.094h-10.84c-4.142 0-7.5-3.357-7.5-7.5s3.358-7.5 7.5-7.5h10.84a7.5 7.5 0 0 1 0 15z" opacity="1" data-original="#ffaacc" class=""></path></g></svg>