<svg xmlns="http://www.w3.org/2000/svg" version="1.1" xmlns:xlink="http://www.w3.org/1999/xlink" width="512" height="512" x="0" y="0" viewBox="0 0 512 512" style="enable-background:new 0 0 512 512" xml:space="preserve"><g><path d="M377.053 409.65c34.427-13.891 61.923-35.475 78.703-66.329 11.696-21.507 18.185-47.518 18.185-78.567 0-26.745-4.815-51.654-13.625-74.224-16.975-43.488-48.783-78.291-89.561-100.806-33.359-18.419-72.721-28.614-114.877-28.614-42.156 0-81.518 10.196-114.877 28.614-40.778 22.515-72.586 57.318-89.561 100.806-8.81 22.57-13.625 47.479-13.625 74.224 0 31.049 6.489 57.06 18.185 78.567 19.494 35.845 53.451 59.178 95.936 72.472 30.898 9.669 66.307 14.027 103.942 14.027 31.064 0 60.611-2.97 87.357-9.443" style="stroke-width:15;stroke-linecap:round;stroke-linejoin:round;stroke-miterlimit:10;" fill="none" stroke="#000000" stroke-width="15" stroke-linecap="round" stroke-linejoin="round" stroke-miterlimit="10" data-original="#000000"></path><path d="M242.113 429.619c-14.578 5.55-24.94 19.65-24.94 36.176 0 21.376 17.329 38.705 38.705 38.705s38.705-17.329 38.705-38.705c0-16.527-10.362-30.626-24.94-36.176" style="stroke-width:15;stroke-linecap:round;stroke-linejoin:round;stroke-miterlimit:10;" fill="none" stroke="#000000" stroke-width="15" stroke-linecap="round" stroke-linejoin="round" stroke-miterlimit="10" data-original="#000000"></path><path d="M87.498 381.798a65.478 65.478 0 0 0-3.268 3c-14.516 14.248-11.404 38.308 6.235 48.437 14.795 8.496 31.261 15.592 49.363 21.257 23.358 7.309 49.308 12.112 77.478 14.372M294.45 468.864c28.17-2.26 54.121-7.064 77.48-14.372 18.101-5.665 34.567-12.761 49.361-21.257 17.638-10.129 20.75-34.189 6.235-48.437a65.053 65.053 0 0 0-3.269-3M23.112 87.504c1.826 9.827 4.431 19.877 7.519 29.739 7.27 23.217 17.22 45.397 26.012 61.198M181.275 72.456c-11.75-13.068-25.585-24.973-40.119-34.909C101.46 10.407 56.679-2.115 35.764 16.013c-9.636 8.352-14.199 21.139-15.257 36.181" style="stroke-width:15;stroke-linecap:round;stroke-linejoin:round;stroke-miterlimit:10;" fill="none" stroke="#000000" stroke-width="15" stroke-linecap="round" stroke-linejoin="round" stroke-miterlimit="10" data-original="#000000"></path><path d="M111.707 109.248c-7.17-16.017-15.477-31.054-25.111-44.63-14.004-19.735-30.78-36.408-50.832-48.605M330.48 72.456c11.75-13.068 25.585-24.973 40.119-34.909 39.697-27.139 84.478-39.661 105.393-21.534 22.116 19.169 17.51 61.702 5.133 101.23-7.27 23.217-17.221 45.397-26.012 61.198" style="stroke-width:15;stroke-linecap:round;stroke-linejoin:round;stroke-miterlimit:10;" fill="none" stroke="#000000" stroke-width="15" stroke-linecap="round" stroke-linejoin="round" stroke-miterlimit="10" data-original="#000000"></path><path d="M400.048 109.248c7.17-16.017 15.477-31.054 25.111-44.63 14.005-19.735 30.781-36.408 50.833-48.605M193.343 222.166v12M318.24 222.166v12M284.884 241.321c0 7.984-6.472 14.456-14.456 14.456s-14.456-6.472-14.456-14.456c0 7.984-6.472 14.456-14.456 14.456-7.984 0-14.456-6.472-14.456-14.456M99.085 272.811c6.859-4.631 16.536-8.996 26.444-12.374 9.909-3.377 20.049-5.766 27.835-6.444M132.036 314.229c3.482-5.507 8.93-11.414 15.391-16.622s13.936-9.716 21.474-12.423M412.861 272.811c-6.859-4.631-16.536-8.996-26.444-12.374-9.909-3.377-20.049-5.766-27.835-6.444M379.91 314.229c-3.483-5.507-8.93-11.414-15.391-16.622s-13.936-9.716-21.474-12.423M250.616 209.982h10.523" style="stroke-width:15;stroke-linecap:round;stroke-linejoin:round;stroke-miterlimit:10;" fill="none" stroke="#000000" stroke-width="15" stroke-linecap="round" stroke-linejoin="round" stroke-miterlimit="10" data-original="#000000"></path></g></svg>