<svg xmlns="http://www.w3.org/2000/svg" version="1.1" xmlns:xlink="http://www.w3.org/1999/xlink" width="512" height="512" x="0" y="0" viewBox="0 0 512 512" style="enable-background:new 0 0 512 512" xml:space="preserve" class=""><g><path d="M139.827 454.492c33.669 10.535 72.714 15.877 116.05 15.877s82.381-5.342 116.052-15.877c18.101-5.664 34.567-12.761 49.361-21.257 17.638-10.129 20.75-34.189 6.235-48.437-4.234-4.156-8.624-7.402-12.706-9.379H96.935c-4.082 1.977-8.471 5.223-12.705 9.379-14.516 14.249-11.404 38.308 6.235 48.438 14.794 8.495 31.26 15.591 49.362 21.256z" style="" fill="#ff6e80" data-original="#ff6e80"></path><circle cx="255.878" cy="465.795" r="38.705" style="" fill="#f7e969" data-original="#f7e969"></circle><path d="M35.764 16.013c7.623 51.404 56.674 131.495 92.07 136.624l73.82-52.575c-13.852-23.861-36.224-45.921-60.498-62.516C101.46 10.407 56.679-2.115 35.764 16.013z" style="" fill="#5972a4" data-original="#5972a4"></path><path d="M38.34 139.118c9.749 24.952 21.36 46.364 29.231 56.439l134.083-95.494c-11.692-20.141-29.464-38.985-49.318-54.356a254.04 254.04 0 0 0-28.253 13.377c-35.892 19.817-64.978 47.077-85.743 80.034z" style="" fill="#3b5a9a" data-original="#3b5a9a"></path><path d="M30.631 117.243c10.581 33.791 26.84 65.386 36.94 78.314l60.263-42.92c-9.904-32.386-23.286-62.723-41.237-88.02C72.592 44.883 55.816 28.21 35.764 16.013c-22.117 19.169-17.511 61.702-5.133 101.23z" style="" fill="#ffbdd7" data-original="#ffbdd7"></path><path d="M444.185 195.557c10.1-12.928 26.359-44.523 36.94-78.314 12.377-39.529 16.983-82.061-5.133-101.23-20.915-18.128-65.696-5.606-105.393 21.534-24.273 16.595-46.646 38.656-60.498 62.516l134.084 95.494z" style="" fill="#ec9a83" data-original="#ec9a83"></path><path d="M473.415 139.118c-9.749 24.952-21.36 46.364-29.231 56.439l-134.083-95.494c11.693-20.141 29.465-38.985 49.318-54.356a254.04 254.04 0 0 1 28.253 13.377c35.893 19.817 64.978 47.077 85.743 80.034z" style="" fill="#de8957" data-original="#de8957"></path><path d="M481.125 117.243c-10.581 33.791-26.84 65.386-36.94 78.314l-60.263-42.92c9.904-32.386 23.286-62.723 41.237-88.02 14.005-19.735 30.781-36.407 50.833-48.605 22.116 19.17 17.51 61.703 5.133 101.231z" style="" fill="#ffbdd7" data-original="#ffbdd7"></path><path d="M473.415 139.118c-9.749 24.952-21.36 46.364-29.231 56.439l-60.263-42.92c8.248-26.973 18.921-52.512 32.625-74.915 22.854 17.117 41.998 37.793 56.869 61.396zM38.34 139.118c9.749 24.952 21.36 46.364 29.231 56.439l60.263-42.92c-8.248-26.973-18.921-52.512-32.625-74.915-22.854 17.117-41.997 37.793-56.869 61.396z" style="" fill="#ffaacc" data-original="#ffaacc"></path><path d="M255.878 429.82c37.635 0 73.044-4.359 103.942-14.027 42.485-13.294 76.442-36.628 95.936-72.472 11.696-21.507 18.185-47.518 18.185-78.567 0-26.745-4.815-51.654-13.625-74.224-16.975-43.488-48.783-78.291-89.561-100.806-33.359-18.419-72.721-28.614-114.877-28.614S174.359 71.304 141 89.723c-40.778 22.515-72.586 57.318-89.561 100.806-8.81 22.57-13.625 47.479-13.625 74.224 0 31.049 6.489 57.06 18.185 78.567 19.494 35.845 53.451 59.178 95.936 72.472 30.899 9.669 66.307 14.028 103.943 14.028z" style="" fill="#eeecff" data-original="#eeecff"></path><path d="M266.575 61.335c-3.545-.146-7.11-.226-10.698-.226-42.156 0-81.518 10.196-114.877 28.614-40.778 22.515-72.586 57.318-89.561 100.806-8.81 22.57-13.625 47.479-13.625 74.224 0 31.049 6.489 57.06 18.185 78.567 19.494 35.845 53.451 59.178 95.936 72.472 30.898 9.669 66.307 14.027 103.942 14.027 8.189 0 16.265-.22 24.22-.642-58.208-101.212-69.313-242.8-13.522-367.842z" style="" fill="#d3d3ff" data-original="#d3d3ff" class=""></path><ellipse cx="175.85" cy="251.682" rx="23.515" ry="29.529" style="" transform="rotate(-89.874 175.852 251.682)" fill="#ffa1ac" data-original="#ffa1ac"></ellipse><ellipse cx="335.905" cy="252.032" rx="23.515" ry="29.529" style="" transform="rotate(-89.874 335.908 252.031)" fill="#ffa1ac" data-original="#ffa1ac"></ellipse><path d="M377.053 409.65c34.427-13.891 61.923-35.475 78.703-66.329 11.696-21.507 18.185-47.518 18.185-78.567 0-26.745-4.815-51.654-13.625-74.224-16.975-43.488-48.783-78.291-89.561-100.806-33.359-18.419-72.721-28.614-114.877-28.614S174.359 71.304 141 89.723c-40.778 22.515-72.586 57.318-89.561 100.806-8.81 22.57-13.625 47.479-13.625 74.224 0 31.049 6.489 57.06 18.185 78.567 19.494 35.845 53.451 59.178 95.936 72.472 30.898 9.669 66.307 14.027 103.942 14.027 31.064 0 60.611-2.97 87.357-9.443" style="stroke-width:15;stroke-linecap:round;stroke-linejoin:round;stroke-miterlimit:10;" fill="none" stroke="#000000" stroke-width="15" stroke-linecap="round" stroke-linejoin="round" stroke-miterlimit="10" data-original="#000000"></path><path d="M242.113 429.619c-14.578 5.55-24.94 19.65-24.94 36.176 0 21.376 17.329 38.705 38.705 38.705 21.376 0 38.705-17.329 38.705-38.705 0-16.527-10.362-30.626-24.94-36.176" style="stroke-width:15;stroke-linecap:round;stroke-linejoin:round;stroke-miterlimit:10;" fill="none" stroke="#000000" stroke-width="15" stroke-linecap="round" stroke-linejoin="round" stroke-miterlimit="10" data-original="#000000"></path><path d="M87.498 381.798a65.478 65.478 0 0 0-3.268 3c-14.516 14.248-11.404 38.308 6.235 48.437 14.795 8.496 31.261 15.592 49.362 21.257 23.358 7.309 49.308 12.112 77.478 14.372M294.45 468.864c28.17-2.26 54.121-7.064 77.48-14.372 18.101-5.665 34.567-12.761 49.361-21.257 17.638-10.129 20.75-34.189 6.235-48.437a65.053 65.053 0 0 0-3.269-3M23.112 87.504c1.826 9.827 4.431 19.877 7.519 29.739 7.27 23.217 17.22 45.397 26.012 61.198M181.275 72.456c-11.75-13.068-25.585-24.973-40.119-34.909C101.46 10.407 56.679-2.115 35.764 16.013c-9.636 8.352-14.199 21.139-15.257 36.181" style="stroke-width:15;stroke-linecap:round;stroke-linejoin:round;stroke-miterlimit:10;" fill="none" stroke="#000000" stroke-width="15" stroke-linecap="round" stroke-linejoin="round" stroke-miterlimit="10" data-original="#000000"></path><path d="M111.707 109.248c-7.17-16.017-15.477-31.054-25.111-44.63-14.004-19.735-30.78-36.408-50.832-48.605M330.48 72.456c11.75-13.068 25.585-24.973 40.119-34.909 39.697-27.139 84.478-39.661 105.393-21.534 22.116 19.169 17.51 61.702 5.133 101.23-7.27 23.217-17.22 45.397-26.012 61.198" style="stroke-width:15;stroke-linecap:round;stroke-linejoin:round;stroke-miterlimit:10;" fill="none" stroke="#000000" stroke-width="15" stroke-linecap="round" stroke-linejoin="round" stroke-miterlimit="10" data-original="#000000"></path><path d="M400.048 109.248c7.17-16.017 15.477-31.054 25.111-44.63 14.005-19.735 30.781-36.408 50.833-48.605M193.343 222.166v12M318.24 222.166v12M284.884 241.321c0 7.984-6.472 14.456-14.456 14.456-7.984 0-14.456-6.472-14.456-14.456 0 7.984-6.472 14.456-14.456 14.456s-14.456-6.472-14.456-14.456M99.085 272.811c6.859-4.631 16.536-8.996 26.444-12.374 9.909-3.377 20.049-5.766 27.835-6.444M132.036 314.229c3.482-5.507 8.93-11.414 15.391-16.622s13.936-9.716 21.474-12.423M412.861 272.811c-6.859-4.631-16.536-8.996-26.444-12.374-9.909-3.377-20.049-5.766-27.835-6.444M379.91 314.229c-3.483-5.507-8.93-11.414-15.391-16.622s-13.936-9.716-21.474-12.423M250.616 209.982h10.523" style="stroke-width:15;stroke-linecap:round;stroke-linejoin:round;stroke-miterlimit:10;" fill="none" stroke="#000000" stroke-width="15" stroke-linecap="round" stroke-linejoin="round" stroke-miterlimit="10" data-original="#000000"></path></g></svg>