<svg xmlns="http://www.w3.org/2000/svg" version="1.1" xmlns:xlink="http://www.w3.org/1999/xlink" width="512" height="512" x="0" y="0" viewBox="0 0 64 64" style="enable-background:new 0 0 512 512" xml:space="preserve" fill-rule="evenodd" class=""><g><linearGradient id="a" x1="0" x2="1" y1="0" y2="0" gradientTransform="matrix(0 -65.6 -59.586 0 698 73.3)" gradientUnits="userSpaceOnUse"><stop offset="0" stop-color="#3223bb"></stop><stop offset="1" stop-color="#e73ecb"></stop></linearGradient><path fill="url(#a)" d="M695.207 64.075h-18.621c-4.628 0-8.379-4.13-8.379-9.225v-28.7c0-5.095 3.751-9.225 8.379-9.225h10.242c1.541 0 2.793 1.378 2.793 3.075s-1.252 3.075-2.793 3.075h-10.242c-1.542 0-2.793 1.377-2.793 3.075v28.7c0 1.698 1.251 3.075 2.793 3.075h42.828c1.542 0 2.793-1.377 2.793-3.075v-28.7c0-1.698-1.251-3.075-2.793-3.075h-2.793c-1.542 0-2.793-1.378-2.793-3.075s1.251-3.075 2.793-3.075h2.793c4.628 0 8.379 4.13 8.379 9.225v28.7c0 5.095-3.751 9.225-8.379 9.225h-18.621v3.075h7.448c1.542 0 2.793 1.378 2.793 3.075s-1.251 3.075-2.793 3.075h-20.482c-1.542 0-2.793-1.378-2.793-3.075s1.251-3.075 2.793-3.075h7.448zm7.448-45.1h-1.862c-1.541 0-2.793-1.378-2.793-3.075s1.252-3.075 2.793-3.075h1.862v-2.05c0-1.697 1.252-3.075 2.793-3.075 1.542 0 2.793 1.378 2.793 3.075v2.05h1.862c1.542 0 2.794 1.378 2.794 3.075s-1.252 3.075-2.794 3.075h-1.862v2.05c0 1.697-1.251 3.075-2.793 3.075-1.541 0-2.793-1.378-2.793-3.075zm-10.999 28.742-2.572-7.652-6.95-2.831c-1.096-.447-1.824-1.597-1.824-2.884s.728-2.437 1.824-2.884l6.95-2.831 2.572-7.652c.406-1.207 1.451-2.008 2.62-2.008s2.214.801 2.619 2.008l2.572 7.652 6.951 2.831c1.096.447 1.823 1.597 1.823 2.884s-.727 2.437-1.823 2.884l-6.951 2.831-2.572 7.652c-.405 1.207-1.45 2.008-2.619 2.008s-2.214-.801-2.62-2.008zm2.62-9.928.398-1.184c.283-.842.886-1.505 1.65-1.817l1.076-.438-1.076-.438c-.764-.312-1.367-.975-1.65-1.817l-.398-1.184-.398 1.184c-.283.842-.886 1.505-1.65 1.817l-1.076.438 1.076.438c.764.312 1.367.975 1.65 1.817zm12.103 5.786c2.056 0 3.724 1.837 3.724 4.1s-1.668 4.1-3.724 4.1c-2.055 0-3.724-1.837-3.724-4.1s1.669-4.1 3.724-4.1z" transform="matrix(1.074 0 0 .976 -717.7 -7.512)" opacity="1" data-original="url(#a)"></path></g></svg>