<svg xmlns="http://www.w3.org/2000/svg" version="1.1" xmlns:xlink="http://www.w3.org/1999/xlink" width="512" height="512" x="0" y="0" viewBox="0 0 64 64" style="enable-background:new 0 0 512 512" xml:space="preserve" fill-rule="evenodd" class=""><g><linearGradient id="a" x1="0" x2="1" y1="0" y2="0" gradientTransform="matrix(0 -64.5 64.5 0 1720 72.5)" gradientUnits="userSpaceOnUse"><stop stop-opacity="1" stop-color="#7e0d9d" offset="0"></stop><stop stop-opacity="1" stop-color="#7328f2" offset="0.26640926640926643"></stop><stop stop-opacity="1" stop-color="#ff0000" offset="1"></stop></linearGradient><path fill="url(#a)" d="M1739.9 51.382a1.996 1.996 0 0 0-3.8 0l-1.9 5.823-5.82 1.893c-.82.268-1.38 1.036-1.38 1.902s.56 1.634 1.38 1.902l5.82 1.893 1.9 5.823a1.996 1.996 0 0 0 3.8 0l1.9-5.823 5.82-1.893c.82-.268 1.38-1.036 1.38-1.902s-.56-1.634-1.38-1.902l-5.82-1.893-1.9-5.823zm-51.9-6.383V45c0 1.461.94 2.759 2.33 3.211l14.69 4.774 4.77 14.683a3.376 3.376 0 0 0 6.42 0l4.78-14.683 14.68-4.774A3.377 3.377 0 0 0 1738 45v-.001c0-1.462-.94-2.758-2.33-3.21l-14.68-4.774-4.78-14.683a3.375 3.375 0 0 0-6.42 0l-4.77 14.683-14.69 4.774a3.374 3.374 0 0 0-2.33 3.21zm25-19.607 4.5 13.828c.19.609.67 1.086 1.28 1.284L1732.61 45l-13.83 4.496c-.61.198-1.09.675-1.28 1.284l-4.5 13.828-4.5-13.828a1.975 1.975 0 0 0-1.28-1.284L1693.39 45l13.83-4.496a1.975 1.975 0 0 0 1.28-1.284zm25 33.076.31.942c.19.609.67 1.086 1.28 1.284l.94.306-.94.306c-.61.198-1.09.675-1.28 1.284l-.31.942-.31-.942a1.975 1.975 0 0 0-1.28-1.284l-.94-.306.94-.306a1.975 1.975 0 0 0 1.28-1.284zm.9-49.086a1.996 1.996 0 0 0-3.8 0l-2.88 8.841-8.84 2.875c-.82.268-1.38 1.036-1.38 1.902s.56 1.634 1.38 1.902l8.84 2.875 2.88 8.841a1.996 1.996 0 0 0 3.8 0l2.88-8.841 8.84-2.875c.82-.268 1.38-1.036 1.38-1.902s-.56-1.634-1.38-1.902l-8.84-2.875-2.88-8.841zm-1.9 7.086 1.29 3.961c.2.608.67 1.085 1.28 1.283l3.96 1.288-3.96 1.288c-.61.198-1.08.675-1.28 1.283l-1.29 3.961-1.29-3.961a1.997 1.997 0 0 0-1.28-1.283L1730.47 23l3.96-1.288a1.997 1.997 0 0 0 1.28-1.283zM1696 21h-2c-1.1 0-2 .896-2 2s.9 2 2 2h2v2c0 1.104.9 2 2 2s2-.896 2-2v-2h2c1.1 0 2-.896 2-2s-.9-2-2-2h-2v-2c0-1.104-.9-2-2-2s-2 .896-2 2z" transform="translate(-1688 -8)" opacity="1" data-original="url(#a)" class=""></path></g></svg>