<svg xmlns="http://www.w3.org/2000/svg" version="1.1" xmlns:xlink="http://www.w3.org/1999/xlink" width="512" height="512" x="0" y="0" viewBox="0 0 512 512" style="enable-background:new 0 0 512 512" xml:space="preserve" class=""><g><path d="M211.983 121.117C169.901 79.034 112.328 61.936 57.624 69.75c-13.794 1.97-24.669 12.846-26.64 26.64-7.815 54.704 9.284 112.277 51.366 154.36a182.775 182.775 0 0 0 22.075 18.806L230.79 143.192a182.874 182.874 0 0 0-18.807-22.075z" style="" fill="#ffb357" data-original="#ffb357"></path><path d="M429.649 250.749c42.083-42.083 59.181-99.655 51.366-154.36-1.97-13.794-12.846-24.669-26.64-26.64-54.704-7.815-112.276 9.284-154.359 51.367a182.803 182.803 0 0 0-18.925 22.237l126.32 126.32a182.563 182.563 0 0 0 22.238-18.924z" style="" fill="#ffce71" data-original="#ffce71" class=""></path><path d="M81.858 131.263c2.062 30.879 15.117 59.93 37.584 82.396l55.45-55.452c-22.281-22.281-51.296-35.426-82.42-37.54-5.997-.407-11.014 4.598-10.614 10.596z" style="" fill="#fce3a0" data-original="#fce3a0"></path><path d="M419.529 120.668c-31.08 2.111-60.107 15.226-82.421 37.54l55.451 55.451c22.466-22.465 35.52-51.517 37.583-82.396.4-5.998-4.616-11.003-10.613-10.595z" style="" fill="#fff1d4" data-original="#fff1d4"></path><path d="M482.594 284.066a281.705 281.705 0 0 0-17.568-21.829c5.717-7.651 5.652-18.173-.006-25.851-27.126-36.809-63.807-65.957-106.344-84.319v-21.428h-102.93l-121.807 37.533v254.61l91.514 37.531A261.942 261.942 0 0 0 256 462.108c85.805 0 161.877-41.678 209.136-105.908 5.592-7.601 5.58-17.968-.016-25.567l-.094-.128a281.69 281.69 0 0 0 17.568-21.828 20.955 20.955 0 0 0 0-24.611z" style="" fill="#ffce71" data-original="#ffce71" class=""></path><path d="M255.746 130.639h-102.9v21.243c-42.391 18.399-78.93 47.895-105.982 84.661-5.593 7.601-5.58 17.968.016 25.567l.094.127a281.28 281.28 0 0 0-17.568 21.829 20.955 20.955 0 0 0 0 24.611 281.265 281.265 0 0 0 17.568 21.828c-5.718 7.651-5.653 18.173.006 25.852 41.569 56.407 105.379 95.376 178.473 103.955-33.729-40.599-54.02-92.782-54.02-149.713 0-72.32 32.868-136.98 84.313-179.96z" style="" fill="#ffb357" data-original="#ffb357"></path><path d="M268.96 230.174c-7.157-7.157-18.762-7.157-25.919 0s-7.157 13.762 0 20.919L256 264.053l12.96-12.96c7.157-7.157 7.157-13.761 0-20.919z" style="" fill="#ff8e9e" data-original="#ff8e9e"></path><path d="M342.619 20.793a287.453 287.453 0 0 0-86.48-13.292l-24.502 12.934v88.396h91.217l27.798-32.909a537.625 537.625 0 0 1 5.123-33.154c1.796-9.597-3.846-19.039-13.156-21.975z" style="" fill="#30cd9c" data-original="#30cd9c" class=""></path><path d="M247.491 27.369c-1.483-7.923 2.113-15.73 8.648-19.868l-.141-.001a290.033 290.033 0 0 0-86.594 13.313c-9.322 2.927-14.976 12.376-13.178 21.98a537.95 537.95 0 0 1 5.112 33.13l70.299 32.906 23.787-19.105a558.027 558.027 0 0 0-2.752-28.634c-1.369-11.219-3.091-22.553-5.181-33.721z" style="" fill="#0caf7b" data-original="#0caf7b" class=""></path><path d="m255.423 89.725-23.787 19.105v18.67h115.129c.437-16.728 1.737-34.127 3.886-51.579a331.268 331.268 0 0 1-95.228 13.804z" style="" fill="#efedff" data-original="#efedff"></path><path d="M161.338 75.924c2.151 17.474 3.464 34.943 3.897 51.576H256V99.201c-.16-3.121-.354-6.284-.577-9.476a331.345 331.345 0 0 1-94.085-13.801z" style="" fill="#d4d4ff" data-original="#d4d4ff"></path><path d="M378.914 118.046c-5.236-11.326-18.659-16.264-29.985-11.024C319.4 120.674 287.7 127.5 256 127.5l-37.642 22.581L256 172.663c35.214.004 70.058-6.971 102.676-20.596a269.023 269.023 0 0 0 9.176-4.036c11.324-5.236 16.298-18.66 11.062-29.985z" style="" fill="#30cd9c" data-original="#30cd9c" class=""></path><path d="M256 127.5c-31.699 0-63.398-6.826-92.926-20.48-11.326-5.235-24.749-.3-29.985 11.024-5.236 11.325-.3 24.749 11.023 29.985a266.332 266.332 0 0 0 8.734 3.851A265.884 265.884 0 0 0 256 172.661c-12.471-12.469-12.471-32.689 0-45.161z" style="" fill="#0caf7b" data-original="#0caf7b" class=""></path><path d="M256 454.5s-52.386 50-80 50-37-22.386-37-50 9.386-50 37-50 80 50 80 50z" style="" fill="#30cd9c" data-original="#30cd9c" class=""></path><path d="M256 454.5s52.386 50 80 50c27.614 0 37-22.386 37-50s-9.386-50-37-50-80 50-80 50z" style="" fill="#ff8f71" data-original="#ff8f71"></path><path d="M284.285 427.864a39.844 39.844 0 0 0-25.47-11.618L216 456.15l42.815 39.904a39.848 39.848 0 0 0 25.47-11.618c7.81-7.811 11.716-18.049 11.716-28.286-.001-10.237-3.906-20.475-11.716-28.286z" style="" fill="#efedff" data-original="#efedff"></path><path d="M241.455 456.15c0-14.702 5.904-29.217 17.36-39.904a40.062 40.062 0 0 0-2.815-.096c-22.083 0-40 17.888-40 40 0 22.083 17.888 40 40 40 .939 0 1.878-.03 2.815-.096-11.119-10.373-17.36-24.739-17.36-39.904z" style="" fill="#d4d4ff" data-original="#d4d4ff"></path><path d="M371.137 435.206c37.297-18.51 69.516-45.729 93.999-79.006 5.592-7.602 5.58-17.968-.016-25.567l-.094-.128a281.69 281.69 0 0 0 17.568-21.828 20.955 20.955 0 0 0 0-24.611 281.705 281.705 0 0 0-17.568-21.829c5.717-7.651 5.652-18.173-.006-25.851a256.075 256.075 0 0 0-11.717-14.722c24.617-37.604 33.849-82.321 27.713-125.274-1.97-13.794-12.846-24.669-26.64-26.64-35.411-5.059-72.019.337-104.854 16.177" style="stroke-width:15;stroke-linecap:round;stroke-linejoin:round;stroke-miterlimit:10;stroke-dasharray:60,30,1000,0,1000,0;" fill="none" stroke="#000000" stroke-width="15" stroke-linecap="round" stroke-linejoin="round" stroke-miterlimit="10" stroke-dasharray="60,30,1000,0,1000,0" data-original="#000000" class=""></path><path d="M162.467 85.921C129.635 70.086 93.031 64.692 57.624 69.75c-13.794 1.971-24.669 12.846-26.64 26.64-6.135 42.949 3.093 87.662 27.705 125.262a261.42 261.42 0 0 0-11.824 14.891c-5.593 7.601-5.58 17.968.016 25.567l.094.127a281.47 281.47 0 0 0-17.568 21.829 20.955 20.955 0 0 0 0 24.611 281.076 281.076 0 0 0 17.568 21.828c-5.718 7.651-5.653 18.173.006 25.852 24.469 33.203 56.649 60.354 93.888 78.831" style="stroke-width:15;stroke-linecap:round;stroke-linejoin:round;stroke-miterlimit:10;" fill="none" stroke="#000000" stroke-width="15" stroke-linecap="round" stroke-linejoin="round" stroke-miterlimit="10" data-original="#000000" class=""></path><path d="M347.68 107.579c1.363-21.054 4.039-43.146 8.095-64.812 1.796-9.596-3.846-19.038-13.156-21.974a287.453 287.453 0 0 0-86.48-13.292l-.141-.001a290.033 290.033 0 0 0-86.594 13.313c-9.322 2.927-14.976 12.376-13.178 21.98 3.985 21.292 6.707 43.547 8.09 64.78" style="stroke-width:15;stroke-linecap:round;stroke-linejoin:round;stroke-miterlimit:10;" fill="none" stroke="#000000" stroke-width="15" stroke-linecap="round" stroke-linejoin="round" stroke-miterlimit="10" data-original="#000000" class=""></path><path d="M256 127.5c-31.257 0-62.51-6.651-91.685-19.926-14.118-6.449-26.496.241-31.226 10.471-5.189 11.224-.383 24.711 11.023 29.985 35.145 16.252 73.158 24.633 111.887 24.633 38.59.004 76.676-8.371 111.852-24.632 11.416-5.279 16.249-18.766 11.062-29.985-4.799-10.379-17.23-16.856-31.234-10.467C318.506 120.851 287.255 127.5 256 127.5zM216 456.15c0-10.283 3.879-19.65 10.246-26.732C209.72 416.945 189.777 404.5 176 404.5c-20.768 0-31.224 12.664-35.133 30.689-1.288 5.942-1.867 12.465-1.867 19.311 0 27.614 9.386 50 37 50 13.309 0 32.37-11.613 48.548-23.646A39.834 39.834 0 0 1 216 456.15zM336 404.5c-13.777 0-33.718 12.444-50.245 24.917 6.829 7.589 10.245 17.16 10.245 26.733a39.879 39.879 0 0 1-8.548 24.703C303.631 492.887 322.692 504.5 336 504.5c27.614 0 37-22.386 37-50 0-6.84-.578-13.356-1.864-19.294C367.231 417.172 356.775 404.5 336 404.5z" style="stroke-width:15;stroke-linecap:round;stroke-linejoin:round;stroke-miterlimit:10;" fill="none" stroke="#000000" stroke-width="15" stroke-linecap="round" stroke-linejoin="round" stroke-miterlimit="10" data-original="#000000" class=""></path><circle cx="256" cy="456.15" r="40" style="stroke-width:15;stroke-linecap:round;stroke-linejoin:round;stroke-miterlimit:10;" transform="rotate(-31.559 256.004 456.139)" fill="none" stroke="#000000" stroke-width="15" stroke-linecap="round" stroke-linejoin="round" stroke-miterlimit="10" data-original="#000000" class=""></circle><path d="M296 454.5h23.747M192.254 454.5H216M176.881 240.605v13.94M90.692 346.276l32.579-16.59M108.723 296.504H73.467M90.692 246.732l32.579 16.591M389.968 263.323l32.579-16.591M439.771 296.504h-35.255M389.967 329.686l32.58 16.59" style="stroke-width:15;stroke-linecap:round;stroke-linejoin:round;stroke-miterlimit:10;" fill="none" stroke="#000000" stroke-width="15" stroke-linecap="round" stroke-linejoin="round" stroke-miterlimit="10" data-original="#000000" class=""></path><path d="M256 276.907c0 10.262-8.319 18.581-18.581 18.581-10.262 0-18.581-8.319-18.581-18.581M293.162 276.907c0 10.262-8.319 18.581-18.581 18.581S256 287.169 256 276.907v-12.854" style="stroke-width:15;stroke-linecap:round;stroke-miterlimit:10;" fill="none" stroke="#000000" stroke-width="15" stroke-linecap="round" stroke-miterlimit="10" data-original="#000000" class=""></path><path d="M242.366 250.419 256 264.053l13.634-13.634M336.358 240.605v13.94M152.846 151.882c-19.843 8.612-38.404 19.657-55.309 32.74-9.071-16.39-14.422-34.532-15.679-53.359-.401-5.998 4.617-11.003 10.614-10.595a128.544 128.544 0 0 1 38.609 8.7M380.913 129.37a128.573 128.573 0 0 1 38.616-8.702c5.997-.408 11.014 4.598 10.613 10.595-1.261 18.885-6.641 37.083-15.763 53.512a261.86 261.86 0 0 0-55.703-32.707" style="stroke-width:15;stroke-linecap:round;stroke-linejoin:round;stroke-miterlimit:10;" fill="none" stroke="#000000" stroke-width="15" stroke-linecap="round" stroke-linejoin="round" stroke-miterlimit="10" data-original="#000000" class=""></path><path d="M161.338 75.924a331.351 331.351 0 0 0 94.086 13.801 331.32 331.32 0 0 0 95.229-13.804" style="stroke-width:15;stroke-linecap:round;stroke-linejoin:round;stroke-miterlimit:10;stroke-dasharray:0,34,1000,0,1000,0;" fill="none" stroke="#000000" stroke-width="15" stroke-linecap="round" stroke-linejoin="round" stroke-miterlimit="10" stroke-dasharray="0,34,1000,0,1000,0" data-original="#000000" class=""></path></g></svg>